<?xml version="1.0" encoding="UTF-8" standalone="no"?>
<!-- Created with Inkscape (http://www.inkscape.org/) -->

<svg
   width="297mm"
   height="210mm"
   viewBox="0 0 297 210"
   version="1.1"
   id="svg1"
   inkscape:version="1.4.4 (dcaf3e7, 2026-05-05)"
   sodipodi:docname="joystick.svg"
   xmlns:inkscape="http://www.inkscape.org/namespaces/inkscape"
   xmlns:sodipodi="http://sodipodi.sourceforge.net/DTD/sodipodi-0.dtd"
   xmlns="http://www.w3.org/2000/svg"
   xmlns:svg="http://www.w3.org/2000/svg">
  <sodipodi:namedview
     id="namedview1"
     pagecolor="#ffffff"
     bordercolor="#000000"
     borderopacity="0.25"
     inkscape:showpageshadow="2"
     inkscape:pageopacity="0.0"
     inkscape:pagecheckerboard="0"
     inkscape:deskcolor="#d1d1d1"
     inkscape:document-units="mm"
     inkscape:zoom="0.10491451"
     inkscape:cx="1758.5747"
     inkscape:cy="1315.3567"
     inkscape:window-width="1470"
     inkscape:window-height="833"
     inkscape:window-x="0"
     inkscape:window-y="38"
     inkscape:window-maximized="1"
     inkscape:current-layer="layer1" />
  <defs
     id="defs1">
    <inkscape:path-effect
       effect="bspline"
       id="path-effect9"
       is_visible="true"
       lpeversion="1.3"
       weight="33.333333"
       steps="2"
       helper_size="0"
       apply_no_weight="true"
       apply_with_weight="true"
       only_selected="false"
       uniform="false" />
    <inkscape:path-effect
       effect="fillet_chamfer"
       id="path-effect21"
       is_visible="true"
       lpeversion="1"
       nodesatellites_param="F,0,0,1,0,0,0,1 @ F,0,0,1,0,0,0,1 @ F,0,0,1,0,0,0,1 @ F,0,0,1,0,0,0,1"
       radius="0"
       unit="px"
       method="auto"
       mode="F"
       chamfer_steps="1"
       flexible="false"
       use_knot_distance="true"
       apply_no_radius="true"
       apply_with_radius="true"
       only_selected="false"
       hide_knots="false" />
    <inkscape:path-effect
       effect="fillet_chamfer"
       id="path-effect20"
       is_visible="true"
       lpeversion="1"
       nodesatellites_param="F,0,0,1,0,0,0,1 @ F,0,0,1,0,47.190746,0,1 @ F,0,0,1,0,0,0,1 @ F,0,0,1,0,0,0,1"
       radius="0"
       unit="px"
       method="auto"
       mode="F"
       chamfer_steps="1"
       flexible="false"
       use_knot_distance="true"
       apply_no_radius="true"
       apply_with_radius="true"
       only_selected="false"
       hide_knots="false" />
    <rect
       x="1482.7457"
       y="1006.2955"
       width="131.43452"
       height="34.968758"
       id="rect15" />
    <inkscape:path-effect
       effect="bspline"
       id="path-effect8"
       is_visible="true"
       lpeversion="1.3"
       weight="33.333333"
       steps="2"
       helper_size="0"
       apply_no_weight="true"
       apply_with_weight="true"
       only_selected="false"
       uniform="false" />
    <inkscape:path-effect
       effect="bspline"
       id="path-effect7"
       is_visible="true"
       lpeversion="1.3"
       weight="33.333333"
       steps="2"
       helper_size="0"
       apply_no_weight="true"
       apply_with_weight="true"
       only_selected="false"
       uniform="false" />
    <inkscape:path-effect
       effect="bspline"
       id="path-effect6"
       is_visible="true"
       lpeversion="1.3"
       weight="33.333333"
       steps="2"
       helper_size="0"
       apply_no_weight="true"
       apply_with_weight="true"
       only_selected="false"
       uniform="false" />
    <inkscape:path-effect
       effect="bspline"
       id="path-effect5"
       is_visible="true"
       lpeversion="1.3"
       weight="33.333333"
       steps="2"
       helper_size="0"
       apply_no_weight="true"
       apply_with_weight="true"
       only_selected="false"
       uniform="false" />
    <inkscape:path-effect
       effect="bspline"
       id="path-effect4"
       is_visible="true"
       lpeversion="1.3"
       weight="33.333333"
       steps="2"
       helper_size="0"
       apply_no_weight="true"
       apply_with_weight="true"
       only_selected="false"
       uniform="false" />
    <inkscape:path-effect
       effect="bspline"
       id="path-effect3"
       is_visible="true"
       lpeversion="1.3"
       weight="33.333333"
       steps="2"
       helper_size="0"
       apply_no_weight="true"
       apply_with_weight="true"
       only_selected="false"
       uniform="false" />
    <inkscape:path-effect
       effect="bspline"
       id="path-effect3-1"
       is_visible="true"
       lpeversion="1.3"
       weight="33.333333"
       steps="2"
       helper_size="0"
       apply_no_weight="true"
       apply_with_weight="true"
       only_selected="false"
       uniform="false" />
    <inkscape:path-effect
       effect="bspline"
       id="path-effect7-6"
       is_visible="true"
       lpeversion="1.3"
       weight="33.333333"
       steps="2"
       helper_size="0"
       apply_no_weight="true"
       apply_with_weight="true"
       only_selected="false"
       uniform="false" />
    <inkscape:path-effect
       effect="bspline"
       id="path-effect8-8"
       is_visible="true"
       lpeversion="1.3"
       weight="33.333333"
       steps="2"
       helper_size="0"
       apply_no_weight="true"
       apply_with_weight="true"
       only_selected="false"
       uniform="false" />
    <rect
       x="1482.7457"
       y="1006.2955"
       width="131.43452"
       height="34.968758"
       id="rect15-5" />
    <rect
       x="1482.7457"
       y="1006.2955"
       width="131.43452"
       height="34.968758"
       id="rect15-8" />
    <inkscape:path-effect
       effect="bspline"
       id="path-effect9-4"
       is_visible="true"
       lpeversion="1.3"
       weight="33.333333"
       steps="2"
       helper_size="0"
       apply_no_weight="true"
       apply_with_weight="true"
       only_selected="false"
       uniform="false" />
    <inkscape:path-effect
       effect="bspline"
       id="path-effect9-5"
       is_visible="true"
       lpeversion="1.3"
       weight="33.333333"
       steps="2"
       helper_size="0"
       apply_no_weight="true"
       apply_with_weight="true"
       only_selected="false"
       uniform="false" />
    <inkscape:path-effect
       effect="bspline"
       id="path-effect9-5-2"
       is_visible="true"
       lpeversion="1.3"
       weight="33.333333"
       steps="2"
       helper_size="0"
       apply_no_weight="true"
       apply_with_weight="true"
       only_selected="false"
       uniform="false" />
    <inkscape:path-effect
       effect="bspline"
       id="path-effect9-7"
       is_visible="true"
       lpeversion="1.3"
       weight="33.333333"
       steps="2"
       helper_size="0"
       apply_no_weight="true"
       apply_with_weight="true"
       only_selected="false"
       uniform="false" />
    <inkscape:path-effect
       effect="bspline"
       id="path-effect9-3"
       is_visible="true"
       lpeversion="1.3"
       weight="33.333333"
       steps="2"
       helper_size="0"
       apply_no_weight="true"
       apply_with_weight="true"
       only_selected="false"
       uniform="false" />
    <inkscape:path-effect
       effect="bspline"
       id="path-effect9-3-1"
       is_visible="true"
       lpeversion="1.3"
       weight="33.333333"
       steps="2"
       helper_size="0"
       apply_no_weight="true"
       apply_with_weight="true"
       only_selected="false"
       uniform="false" />
    <inkscape:path-effect
       effect="bspline"
       id="path-effect9-3-2"
       is_visible="true"
       lpeversion="1.3"
       weight="33.333333"
       steps="2"
       helper_size="0"
       apply_no_weight="true"
       apply_with_weight="true"
       only_selected="false"
       uniform="false" />
    <inkscape:path-effect
       effect="bspline"
       id="path-effect9-3-2-9"
       is_visible="true"
       lpeversion="1.3"
       weight="33.333333"
       steps="2"
       helper_size="0"
       apply_no_weight="true"
       apply_with_weight="true"
       only_selected="false"
       uniform="false" />
    <inkscape:path-effect
       effect="bspline"
       id="path-effect9-3-2-8"
       is_visible="true"
       lpeversion="1.3"
       weight="33.333333"
       steps="2"
       helper_size="0"
       apply_no_weight="true"
       apply_with_weight="true"
       only_selected="false"
       uniform="false" />
    <inkscape:path-effect
       effect="bspline"
       id="path-effect9-3-6"
       is_visible="true"
       lpeversion="1.3"
       weight="33.333333"
       steps="2"
       helper_size="0"
       apply_no_weight="true"
       apply_with_weight="true"
       only_selected="false"
       uniform="false" />
    <inkscape:path-effect
       effect="bspline"
       id="path-effect9-3-2-9-0"
       is_visible="true"
       lpeversion="1.3"
       weight="33.333333"
       steps="2"
       helper_size="0"
       apply_no_weight="true"
       apply_with_weight="true"
       only_selected="false"
       uniform="false" />
    <inkscape:path-effect
       effect="bspline"
       id="path-effect9-3-2-0"
       is_visible="true"
       lpeversion="1.3"
       weight="33.333333"
       steps="2"
       helper_size="0"
       apply_no_weight="true"
       apply_with_weight="true"
       only_selected="false"
       uniform="false" />
    <inkscape:path-effect
       effect="bspline"
       id="path-effect9-3-0"
       is_visible="true"
       lpeversion="1.3"
       weight="33.333333"
       steps="2"
       helper_size="0"
       apply_no_weight="true"
       apply_with_weight="true"
       only_selected="false"
       uniform="false" />
    <inkscape:path-effect
       effect="bspline"
       id="path-effect9-3-2-9-6"
       is_visible="true"
       lpeversion="1.3"
       weight="33.333333"
       steps="2"
       helper_size="0"
       apply_no_weight="true"
       apply_with_weight="true"
       only_selected="false"
       uniform="false" />
    <inkscape:path-effect
       effect="bspline"
       id="path-effect9-3-2-96"
       is_visible="true"
       lpeversion="1.3"
       weight="33.333333"
       steps="2"
       helper_size="0"
       apply_no_weight="true"
       apply_with_weight="true"
       only_selected="false"
       uniform="false" />
    <inkscape:path-effect
       effect="bspline"
       id="path-effect9-3-2-96-9"
       is_visible="true"
       lpeversion="1.3"
       weight="33.333333"
       steps="2"
       helper_size="0"
       apply_no_weight="true"
       apply_with_weight="true"
       only_selected="false"
       uniform="false" />
    <inkscape:path-effect
       effect="bspline"
       id="path-effect9-3-2-96-9-4"
       is_visible="true"
       lpeversion="1.3"
       weight="33.333333"
       steps="2"
       helper_size="0"
       apply_no_weight="true"
       apply_with_weight="true"
       only_selected="false"
       uniform="false" />
  </defs>
  <g
     inkscape:label="Livello 1"
     inkscape:groupmode="layer"
     id="layer1">
    <circle
       style="fill:none;stroke-width:0.1;stroke-linecap:round;paint-order:fill markers stroke;stroke-dasharray:none"
       id="path1"
       cx="-210.42616"
       cy="317.68759"
       r="27.5" />
    <rect
       style="fill:none;stroke-width:0.1;stroke-linecap:round;paint-order:fill markers stroke;stroke-dasharray:none"
       id="rect1"
       width="210"
       height="160"
       x="-237.92616"
       y="185.18758" />
    <circle
       style="fill:#0000ff;stroke-width:0.1;stroke-linecap:round;paint-order:fill markers stroke;stroke-dasharray:none"
       id="path1-8"
       cx="-55.426167"
       cy="317.68756"
       r="27.5" />
    <rect
       style="fill:none;stroke-width:0.1;stroke-linecap:round;paint-order:fill markers stroke;stroke-dasharray:none"
       id="rect2"
       width="120"
       height="55"
       x="-192.92618"
       y="185.18758" />
    <path
       style="fill:none;stroke-width:0.1;stroke-linecap:round;paint-order:fill markers stroke;stroke-dasharray:none"
       d="m -192.92617,240.18757 -39.2154,60.62722"
       id="path2"
       sodipodi:nodetypes="cc" />
    <path
       style="fill:none;stroke-width:0.1;stroke-linecap:round;paint-order:fill markers stroke;stroke-dasharray:none"
       d="m 74.01,260.92615 c 3.393386,-5.24619 6.786772,-10.49238 8.483467,-17.69891 1.696695,-7.20652 1.696695,-16.373 1.696695,-25.53967"
       id="path3"
       transform="translate(-277.11634,-5)" />
    <rect
       style="fill:none;stroke-width:0.1;stroke-linecap:round;paint-order:fill markers stroke;stroke-dasharray:none"
       id="rect6"
       width="50"
       height="13.750011"
       x="-182.92616"
       y="303.93759" />
    <path
       style="fill:none;stroke-width:0.1;stroke-linecap:round;paint-order:fill markers stroke;stroke-dasharray:none"
       d="m 87.065444,341.15644 c 10.708244,-10.73962 21.416266,-21.47902 30.937246,-26.84893 9.52098,-5.36992 17.85415,-5.36992 26.18748,-5.36992"
       id="path6"
       sodipodi:nodetypes="ccc"
       transform="translate(-277.11634,-5)" />
    <rect
       style="fill:none;stroke-width:0.1;stroke-linecap:round;paint-order:fill markers stroke;stroke-dasharray:none"
       id="rect7"
       width="155"
       height="27.499968"
       x="-210.42616"
       y="290.18759" />
    <path
       style="fill:none;stroke-width:0.1;stroke-linecap:round;paint-order:fill markers stroke;stroke-dasharray:none"
       d="m 66.69017,308.93758 c 51.66667,0 103.33333,0 155,0"
       id="path7"
       transform="translate(-277.11634,-5)" />
    <path
       style="fill:none;stroke-width:0.1;stroke-linecap:round;paint-order:fill markers stroke;stroke-dasharray:none"
       d="m -192.92617,185.18757 c 0,0 0,39.52612 -2.38655,55.58089 -2.16905,14.59169 -26.31213,36.28417 -36.82885,57.93312 -2.59796,5.34799 -5.7846,13.04039 -5.7846,18.986 0,19.30886 18.45662,27.50004 27.5,27.50002 9.04338,-2e-5 15.1821,-4.57068 20.37528,-9.03116 6.71766,-5.76987 20.77051,-20.38192 30.93724,-26.84893 10.16673,-6.46701 26.18748,-5.36993 26.18748,-5.36993"
       id="path11"
       sodipodi:nodetypes="cssszszc" />
    <path
       style="fill:none;stroke:#ff0000;stroke-width:0.1;stroke-linecap:round;stroke-opacity:1;paint-order:fill markers stroke;stroke-dasharray:none"
       d="m 349.50245,190.18756 c 0,0 10e-6,39.52612 -2.38654,55.58089 -2.16905,14.59169 -26.31213,36.28417 -36.82885,57.93312 -2.59796,5.34799 -5.7846,13.04039 -5.7846,18.986 0,19.30886 18.45662,27.50004 27.5,27.50002 9.04338,-2e-5 15.1821,-4.57068 20.37528,-9.03116 6.71766,-5.76987 20.77051,-20.38192 30.93724,-26.84893 10.16673,-6.46701 26.18748,-5.36993 26.18748,-5.36993"
       id="path11-1"
       sodipodi:nodetypes="cssszszc" />
    <path
       style="fill:none;stroke:#ff0000;stroke-width:0.1;stroke-linecap:round;stroke-opacity:1;paint-order:fill markers stroke;stroke-dasharray:none"
       d="m 469.50247,190.18756 c 0,0 0,39.52612 2.38654,55.58089 2.16906,14.59169 26.31213,36.28417 36.82885,57.93312 2.59796,5.34799 5.7846,13.04039 5.7846,18.986 0,19.30886 -18.45662,27.50004 -27.5,27.50002 -9.04338,-2e-5 -15.1821,-4.57068 -20.37527,-9.03116 -6.71767,-5.76987 -20.77052,-20.38192 -30.93725,-26.84893 -10.16673,-6.46701 -26.18748,-5.36993 -26.18748,-5.36993"
       id="path11-2"
       sodipodi:nodetypes="cssszszc" />
    <path
       style="fill:none;stroke:#ff0000;stroke-width:0.1;stroke-linecap:round;stroke-opacity:1;paint-order:fill markers stroke;stroke-dasharray:none"
       d="m 349.50245,190.18756 c 0,0 10e-6,-39.52612 -2.38654,-55.58089 -2.16905,-14.59169 -26.31213,-36.28417 -36.82885,-57.93312 -2.59796,-5.34799 -5.7846,-13.04039 -5.7846,-18.986 0,-19.30886 18.45662,-27.50004 27.5,-27.50002 9.04338,2e-5 15.1821,4.57068 20.37528,9.03116 6.71766,5.76987 20.77051,20.38192 30.93724,26.84893 10.16673,6.46701 26.18748,5.36993 26.18748,5.36993"
       id="path11-1-2"
       sodipodi:nodetypes="cssszszc" />
    <path
       style="fill:none;stroke:#ff0000;stroke-width:0.1;stroke-linecap:round;stroke-opacity:1;paint-order:fill markers stroke;stroke-dasharray:none"
       d="m 469.50247,190.18756 c 0,0 0,-39.52612 2.38654,-55.58089 2.16906,-14.59169 26.31213,-36.28417 36.82885,-57.93312 2.59796,-5.34799 5.7846,-13.04039 5.7846,-18.986 0,-19.30886 -18.45662,-27.50004 -27.5,-27.50002 -9.04338,2e-5 -15.1821,4.57068 -20.37527,9.03116 -6.71767,5.76987 -20.77052,20.38192 -30.93725,26.84893 -10.16673,6.46701 -26.18748,5.36993 -26.18748,5.36993"
       id="path11-2-3"
       sodipodi:nodetypes="cssszszc" />
    <rect
       style="fill:none;stroke-width:0.1;stroke-linecap:round;paint-order:fill markers stroke;stroke-dasharray:none"
       id="rect1-1"
       width="210"
       height="160"
       x="-237.92618"
       y="7.9967995" />
    <circle
       style="fill:#0000ff;stroke-width:0.1;stroke-linecap:round;paint-order:fill markers stroke;stroke-dasharray:none"
       id="path1-8-8"
       cx="-55.426167"
       cy="140.49678"
       r="27.5" />
    <rect
       style="fill:none;stroke-width:0.1;stroke-linecap:round;paint-order:fill markers stroke;stroke-dasharray:none"
       id="rect2-9"
       width="120"
       height="55"
       x="-192.92618"
       y="7.9967995" />
    <path
       style="fill:none;stroke-width:0.1;stroke-linecap:round;paint-order:fill markers stroke;stroke-dasharray:none"
       d="m -192.92618,7.996792 c 0,0 0,39.52612 -2.38654,55.58089 -2.16905,14.59169 -26.31213,36.284168 -36.82885,57.933118 -2.59796,5.34799 -5.7846,13.04039 -5.7846,18.986 0,19.30886 18.45662,27.50004 27.5,27.50002 9.04338,-2e-5 15.1821,-4.57068 20.37527,-9.03116 6.71767,-5.76987 20.77052,-20.38192 30.93725,-26.84893 10.16673,-6.46701 26.18748,-5.36993 26.18748,-5.36993"
       id="path11-12"
       sodipodi:nodetypes="cssszszc" />
    <rect
       style="fill:none;stroke-width:0.1;stroke-linecap:round;paint-order:fill markers stroke;stroke-dasharray:none"
       id="rect11"
       width="70"
       height="95"
       x="-132.92616"
       y="7.9968004" />
    <rect
       style="fill:none;stroke-width:0.1;stroke-linecap:round;paint-order:fill markers stroke;stroke-dasharray:none"
       id="rect12"
       width="45"
       height="114"
       x="-132.92616"
       y="7.9967995" />
    <circle
       style="fill:none;stroke-width:0.1;stroke-linecap:round;paint-order:fill markers stroke;stroke-dasharray:none"
       id="path12"
       cx="-62.926167"
       cy="102.9968"
       r="5" />
    <circle
       style="fill:none;stroke-width:0.1;stroke-linecap:round;paint-order:fill markers stroke;stroke-dasharray:none"
       id="path12-1"
       cx="-87.926163"
       cy="121.9968"
       r="5" />
    <circle
       style="fill:none;stroke:#ff0000;stroke-width:0.1;stroke-linecap:round;stroke-opacity:1;paint-order:fill markers stroke;stroke-dasharray:none"
       id="path12-0"
       cx="479.50247"
       cy="285.18756"
       r="5" />
    <circle
       style="fill:none;stroke:#ff0000;stroke-width:0.1;stroke-linecap:round;stroke-opacity:1;paint-order:fill markers stroke;stroke-dasharray:none"
       id="path12-1-2"
       cx="454.50247"
       cy="304.18756"
       r="5" />
    <circle
       style="fill:none;stroke:#ff0000;stroke-width:0.1;stroke-linecap:round;stroke-opacity:1;paint-order:fill markers stroke;stroke-dasharray:none"
       id="path12-0-6"
       cx="-339.50247"
       cy="285.18756"
       r="5"
       transform="scale(-1,1)" />
    <circle
       style="fill:none;stroke:#ff0000;stroke-width:0.1;stroke-linecap:round;stroke-opacity:1;paint-order:fill markers stroke;stroke-dasharray:none"
       id="path12-1-2-5"
       cx="-364.50247"
       cy="304.18756"
       r="5"
       transform="scale(-1,1)" />
    <circle
       style="fill:none;stroke:#ff0000;stroke-width:0.1;stroke-linecap:round;stroke-opacity:1;paint-order:fill markers stroke;stroke-dasharray:none"
       id="path13"
       cx="409.50247"
       cy="190.18756"
       r="30" />
    <circle
       style="fill:none;stroke:#ff0000;stroke-width:0.1;stroke-linecap:round;stroke-opacity:1;paint-order:fill markers stroke;stroke-dasharray:none"
       id="path12-0-61"
       cx="479.50247"
       cy="-95.187561"
       r="5"
       transform="scale(1,-1)" />
    <circle
       style="fill:none;stroke:#ff0000;stroke-width:0.1;stroke-linecap:round;stroke-opacity:1;paint-order:fill markers stroke;stroke-dasharray:none"
       id="path12-1-2-3"
       cx="454.50247"
       cy="-76.187546"
       r="5"
       transform="scale(1,-1)" />
    <circle
       style="fill:none;stroke:#ff0000;stroke-width:0.1;stroke-linecap:round;stroke-opacity:1;paint-order:fill markers stroke;stroke-dasharray:none"
       id="path12-0-6-8"
       cx="-339.50244"
       cy="-95.187561"
       r="5"
       transform="scale(-1)" />
    <circle
       style="fill:none;stroke:#ff0000;stroke-width:0.1;stroke-linecap:round;stroke-opacity:1;paint-order:fill markers stroke;stroke-dasharray:none"
       id="path12-1-2-5-9"
       cx="-364.50244"
       cy="-76.187546"
       r="5"
       transform="scale(-1)" />
    <circle
       style="fill:none;stroke-width:0.1;stroke-linecap:round;paint-order:fill markers stroke;stroke-dasharray:none"
       id="path14"
       cx="-132.92616"
       cy="103"
       r="1.5" />
    <path
       style="fill:none;stroke-width:0.1;stroke-linecap:round;paint-order:fill markers stroke;stroke-dasharray:none"
       d="m -143.42617,103 h 21"
       id="path15" />
    <circle
       style="fill:none;stroke-width:0.1;stroke-linecap:round;paint-order:fill markers stroke;stroke-dasharray:none"
       id="path14-6"
       cx="-122.42616"
       cy="103"
       r="1.5" />
    <circle
       style="fill:none;stroke-width:0.1;stroke-linecap:round;paint-order:fill markers stroke;stroke-dasharray:none"
       id="path14-6-9"
       cx="-143.42616"
       cy="103"
       r="1.5" />
    <circle
       style="fill:none;stroke:#ff0000;stroke-width:0.1;stroke-linecap:round;stroke-opacity:1;paint-order:fill markers stroke;stroke-dasharray:none"
       id="path14-2"
       cx="409.50247"
       cy="285.19077"
       r="1.5" />
    <circle
       style="fill:none;stroke:#ff0000;stroke-width:0.1;stroke-linecap:round;stroke-opacity:1;paint-order:fill markers stroke;stroke-dasharray:none"
       id="path14-6-91"
       cx="420.00247"
       cy="285.19077"
       r="1.5" />
    <circle
       style="fill:none;stroke:#ff0000;stroke-width:0.1;stroke-linecap:round;stroke-opacity:1;paint-order:fill markers stroke;stroke-dasharray:none"
       id="path14-6-9-3"
       cx="399.00247"
       cy="285.19077"
       r="1.5" />
    <circle
       style="fill:none;stroke:#ff0000;stroke-width:0.1;stroke-linecap:round;stroke-opacity:1;paint-order:fill markers stroke;stroke-dasharray:none"
       id="path14-2-7"
       cx="409.50247"
       cy="-95.184372"
       r="1.5"
       transform="scale(1,-1)" />
    <circle
       style="fill:none;stroke:#ff0000;stroke-width:0.1;stroke-linecap:round;stroke-opacity:1;paint-order:fill markers stroke;stroke-dasharray:none"
       id="path14-6-91-6"
       cx="420.00247"
       cy="-95.184372"
       r="1.5"
       transform="scale(1,-1)" />
    <circle
       style="fill:none;stroke:#ff0000;stroke-width:0.1;stroke-linecap:round;stroke-opacity:1;paint-order:fill markers stroke;stroke-dasharray:none"
       id="path14-6-9-3-3"
       cx="399.00247"
       cy="-95.184372"
       r="1.5"
       transform="scale(1,-1)" />
    <path
       d="m 1522.9746,1023.1758 q 0,1.7709 -0.5078,3.2422 -0.5078,1.4584 -1.4323,2.474 -0.8594,0.9635 -2.0313,1.4974 -1.1588,0.5208 -2.4609,0.5208 -1.1328,0 -2.0573,-0.2474 -0.9115,-0.2474 -1.862,-0.7682 v 6.0938 h -2.4479 v -19.9089 h 2.4479 v 1.5234 q 0.9766,-0.8203 2.1875,-1.3672 1.224,-0.5599 2.6042,-0.5599 2.6302,0 4.0885,1.9922 1.4714,1.9792 1.4714,5.5078 z m -2.5261,0.065 q 0,-2.6302 -0.8984,-3.9323 -0.8984,-1.302 -2.7604,-1.302 -1.0547,0 -2.1224,0.4557 -1.0677,0.4557 -2.0443,1.1979 v 8.2422 q 1.0417,0.4688 1.7839,0.638 0.7552,0.1693 1.7057,0.1693 2.0443,0 3.1901,-1.3802 1.1458,-1.3802 1.1458,-4.0886 z m 18.737,0.1172 q 0,3.5547 -1.8229,5.612 -1.8229,2.0573 -4.8828,2.0573 -3.0859,0 -4.9089,-2.0573 -1.8099,-2.0573 -1.8099,-5.612 0,-3.5547 1.8099,-5.612 1.823,-2.0703 4.9089,-2.0703 3.0599,0 4.8828,2.0703 1.8229,2.0573 1.8229,5.612 z m -2.526,0 q 0,-2.8255 -1.1068,-4.1927 -1.1068,-1.3802 -3.0729,-1.3802 -1.9922,0 -3.099,1.3802 -1.0937,1.3672 -1.0937,4.1927 0,2.7344 1.1068,4.1537 1.1067,1.4062 3.0859,1.4062 1.9531,0 3.0599,-1.3932 1.1198,-1.4063 1.1198,-4.1667 z m 8.9453,-9.7135 h -2.7604 v -2.5391 h 2.7604 z m -0.1562,16.9792 h -2.448 v -14.5443 h 2.448 z m 17.0052,0 h -2.4479 v -8.2813 q 0,-1.0026 -0.1172,-1.875 -0.1172,-0.8854 -0.4297,-1.3802 -0.3255,-0.5469 -0.9375,-0.8073 -0.612,-0.2734 -1.5885,-0.2734 -1.0027,0 -2.0964,0.4947 -1.0938,0.4948 -2.0964,1.2631 v 10.8594 h -2.4479 v -14.5443 h 2.4479 v 1.6146 q 1.1459,-0.9506 2.3698,-1.4844 1.224,-0.5339 2.5131,-0.5339 2.3567,0 3.5937,1.4193 1.237,1.4193 1.237,4.0885 z m 12.2656,-0.1302 q -0.6901,0.1822 -1.5104,0.2994 -0.8073,0.1172 -1.4453,0.1172 -2.2266,0 -3.3854,-1.1979 -1.1589,-1.1979 -1.1589,-3.8411 v -7.7344 h -1.6536 v -2.0573 h 1.6536 v -4.1797 h 2.4479 v 4.1797 h 5.0521 v 2.0573 h -5.0521 v 6.6276 q 0,1.1458 0.052,1.7969 0.052,0.638 0.3646,1.1979 0.2865,0.5208 0.7813,0.7682 0.5078,0.2344 1.5364,0.2344 0.599,0 1.25,-0.1693 0.6511,-0.1823 0.9375,-0.2995 h 0.1302 z m 13.3464,-4.0626 q 0,1.9922 -1.6536,3.2683 -1.6407,1.276 -4.4922,1.276 -1.6146,0 -2.9688,-0.3776 -1.3411,-0.3906 -2.2526,-0.8463 v -2.7474 h 0.1302 q 1.1589,0.8724 2.5781,1.3932 1.4193,0.5078 2.7214,0.5078 1.6146,0 2.526,-0.5208 0.9115,-0.5209 0.9115,-1.6407 0,-0.8593 -0.4948,-1.302 -0.4948,-0.4427 -1.901,-0.7552 -0.5209,-0.1172 -1.3672,-0.2735 -0.8334,-0.1562 -1.5235,-0.3385 -1.914,-0.5078 -2.7213,-1.4844 -0.7943,-0.9896 -0.7943,-2.4219 0,-0.8984 0.3646,-1.6927 0.3776,-0.7943 1.1328,-1.4193 0.7292,-0.6119 1.849,-0.9635 1.1328,-0.3646 2.526,-0.3646 1.3021,0 2.6302,0.3255 1.3412,0.3125 2.2266,0.7683 v 2.6172 h -0.1302 q -0.9375,-0.6902 -2.2787,-1.1589 -1.3411,-0.4818 -2.6302,-0.4818 -1.3411,0 -2.2656,0.5209 -0.9245,0.5078 -0.9245,1.5234 0,0.8984 0.5599,1.3542 0.5469,0.4557 1.7708,0.7422 0.6771,0.1562 1.5105,0.3125 0.8463,0.1562 1.4062,0.2864 1.7057,0.3906 2.6302,1.3412 0.9245,0.9635 0.9245,2.552 z"
       id="text15"
       style="font-size:26.6667px;font-family:'Bauhaus 93';-inkscape-font-specification:'Bauhaus 93, Normal';text-align:center;white-space:pre;fill:#0000ff;stroke-width:0.37795276;stroke-linecap:round;paint-order:fill markers stroke;stroke-dasharray:none"
       transform="matrix(0.26458333,0,0,0.26458333,-0.36036113,6.9279084)"
       aria-label="points" />
    <path
       d="m 346.89681,280.18756 h -2.77675 v -0.52365 h 1.06798 v -3.43821 h -1.06798 v -0.46853 q 0.21704,0 0.46509,-0.0345 0.24805,-0.0379 0.37551,-0.10679 0.15848,-0.0861 0.24805,-0.21704 0.093,-0.13436 0.1068,-0.35829 h 0.53399 v 4.62332 h 1.04731 z"
       id="text16"
       style="font-size:7.05556px;font-family:'Bauhaus 93';-inkscape-font-specification:'Bauhaus 93, Normal';fill:#0000ff;stroke-width:0.1;stroke-linecap:round;paint-order:fill markers stroke;stroke-dasharray:none"
       aria-label="1" />
    <path
       d="m 373.18528,299.18756 h -3.47266 v -0.72002 q 0.36173,-0.31006 0.72347,-0.62012 0.36518,-0.31006 0.67868,-0.61667 0.66146,-0.64079 0.90607,-1.01631 0.2446,-0.37896 0.2446,-0.81649 0,-0.39963 -0.26528,-0.62356 -0.26182,-0.22738 -0.7338,-0.22738 -0.31351,0 -0.67869,0.11025 -0.36518,0.11024 -0.71313,0.33762 h -0.0345 v -0.72347 q 0.2446,-0.12058 0.65112,-0.22049 0.40997,-0.0999 0.79237,-0.0999 0.78893,0 1.23679,0.38241 0.44787,0.37896 0.44787,1.03008 0,0.29284 -0.0758,0.54777 -0.0723,0.2515 -0.21704,0.47887 -0.13436,0.2136 -0.31695,0.4203 -0.17914,0.20671 -0.43752,0.4582 -0.36863,0.36174 -0.76137,0.7028 -0.39274,0.33762 -0.73381,0.62701 h 2.75953 z"
       id="text17"
       style="font-size:7.05556px;font-family:'Bauhaus 93';-inkscape-font-specification:'Bauhaus 93, Normal';fill:#0000ff;stroke-width:0.1;stroke-linecap:round;paint-order:fill markers stroke;stroke-dasharray:none"
       aria-label="2" />
    <path
       d="m 449.80907,296.6003 q 0.16537,0.14814 0.27217,0.37207 0.10679,0.22393 0.10679,0.57878 0,0.3514 -0.12746,0.64423 -0.12747,0.29283 -0.35829,0.50987 -0.25839,0.24116 -0.60979,0.35829 -0.34795,0.11369 -0.76481,0.11369 -0.42719,0 -0.8406,-0.10335 -0.41341,-0.0999 -0.67869,-0.22049 v -0.72002 h 0.0517 q 0.29283,0.19292 0.68902,0.32039 0.39619,0.12747 0.76481,0.12747 0.21704,0 0.46164,-0.0724 0.24461,-0.0723 0.39619,-0.21359 0.15848,-0.15159 0.23427,-0.33418 0.0792,-0.18259 0.0792,-0.46164 0,-0.27561 -0.0896,-0.45475 -0.0861,-0.18259 -0.24115,-0.28595 -0.15503,-0.10679 -0.37552,-0.14469 -0.22049,-0.0413 -0.47542,-0.0413 h -0.31006 v -0.57189 h 0.24115 q 0.52366,0 0.83372,-0.21704 0.3135,-0.22048 0.3135,-0.64079 0,-0.18603 -0.0792,-0.32384 -0.0792,-0.14125 -0.22048,-0.23082 -0.14814,-0.0896 -0.31695,-0.12402 -0.16881,-0.0344 -0.38241,-0.0344 -0.32728,0 -0.69591,0.11713 -0.36862,0.11713 -0.69591,0.33073 h -0.0344 v -0.72002 q 0.24461,-0.12058 0.65113,-0.22049 0.40996,-0.10335 0.79237,-0.10335 0.37551,0 0.66146,0.0689 0.28594,0.0689 0.51676,0.22048 0.24805,0.16537 0.37552,0.39964 0.12747,0.23426 0.12747,0.54777 0,0.42719 -0.30317,0.74758 -0.29973,0.31695 -0.70969,0.39963 v 0.0482 q 0.16536,0.0276 0.37896,0.11713 0.21359,0.0861 0.36173,0.21704 z"
       id="text18"
       style="font-size:7.05556px;font-family:'Bauhaus 93';-inkscape-font-specification:'Bauhaus 93, Normal';fill:#0000ff;stroke-width:0.1;stroke-linecap:round;paint-order:fill markers stroke;stroke-dasharray:none"
       aria-label="3" />
    <path
       d="m 474.91243,278.74407 h -0.76137 v 1.44349 h -0.66146 v -1.44349 h -2.45635 v -0.79238 l 2.48391,-2.89388 h 0.6339 v 3.13504 h 0.76137 z m -1.42283,-0.55122 v -2.31511 l -1.98782,2.31511 z"
       id="text19"
       style="font-size:7.05556px;font-family:'Bauhaus 93';-inkscape-font-specification:'Bauhaus 93, Normal';fill:#0000ff;stroke-width:0.1;stroke-linecap:round;paint-order:fill markers stroke;stroke-dasharray:none"
       aria-label="4" />
    <path
       d="m 1522.9746,1023.1758 q 0,1.7709 -0.5078,3.2422 -0.5078,1.4584 -1.4323,2.474 -0.8594,0.9635 -2.0313,1.4974 -1.1588,0.5208 -2.4609,0.5208 -1.1328,0 -2.0573,-0.2474 -0.9115,-0.2474 -1.862,-0.7682 v 6.0938 h -2.4479 v -19.9089 h 2.4479 v 1.5234 q 0.9766,-0.8203 2.1875,-1.3672 1.224,-0.5599 2.6042,-0.5599 2.6302,0 4.0885,1.9922 1.4714,1.9792 1.4714,5.5078 z m -2.5261,0.065 q 0,-2.6302 -0.8984,-3.9323 -0.8984,-1.302 -2.7604,-1.302 -1.0547,0 -2.1224,0.4557 -1.0677,0.4557 -2.0443,1.1979 v 8.2422 q 1.0417,0.4688 1.7839,0.638 0.7552,0.1693 1.7057,0.1693 2.0443,0 3.1901,-1.3802 1.1458,-1.3802 1.1458,-4.0886 z m 18.737,0.1172 q 0,3.5547 -1.8229,5.612 -1.8229,2.0573 -4.8828,2.0573 -3.0859,0 -4.9089,-2.0573 -1.8099,-2.0573 -1.8099,-5.612 0,-3.5547 1.8099,-5.612 1.823,-2.0703 4.9089,-2.0703 3.0599,0 4.8828,2.0703 1.8229,2.0573 1.8229,5.612 z m -2.526,0 q 0,-2.8255 -1.1068,-4.1927 -1.1068,-1.3802 -3.0729,-1.3802 -1.9922,0 -3.099,1.3802 -1.0937,1.3672 -1.0937,4.1927 0,2.7344 1.1068,4.1537 1.1067,1.4062 3.0859,1.4062 1.9531,0 3.0599,-1.3932 1.1198,-1.4063 1.1198,-4.1667 z m 8.9453,-9.7135 h -2.7604 v -2.5391 h 2.7604 z m -0.1562,16.9792 h -2.448 v -14.5443 h 2.448 z m 17.0052,0 h -2.4479 v -8.2813 q 0,-1.0026 -0.1172,-1.875 -0.1172,-0.8854 -0.4297,-1.3802 -0.3255,-0.5469 -0.9375,-0.8073 -0.612,-0.2734 -1.5885,-0.2734 -1.0027,0 -2.0964,0.4947 -1.0938,0.4948 -2.0964,1.2631 v 10.8594 h -2.4479 v -14.5443 h 2.4479 v 1.6146 q 1.1459,-0.9506 2.3698,-1.4844 1.224,-0.5339 2.5131,-0.5339 2.3567,0 3.5937,1.4193 1.237,1.4193 1.237,4.0885 z m 12.2656,-0.1302 q -0.6901,0.1822 -1.5104,0.2994 -0.8073,0.1172 -1.4453,0.1172 -2.2266,0 -3.3854,-1.1979 -1.1589,-1.1979 -1.1589,-3.8411 v -7.7344 h -1.6536 v -2.0573 h 1.6536 v -4.1797 h 2.4479 v 4.1797 h 5.0521 v 2.0573 h -5.0521 v 6.6276 q 0,1.1458 0.052,1.7969 0.052,0.638 0.3646,1.1979 0.2865,0.5208 0.7813,0.7682 0.5078,0.2344 1.5364,0.2344 0.599,0 1.25,-0.1693 0.6511,-0.1823 0.9375,-0.2995 h 0.1302 z m 13.3464,-4.0626 q 0,1.9922 -1.6536,3.2683 -1.6407,1.276 -4.4922,1.276 -1.6146,0 -2.9688,-0.3776 -1.3411,-0.3906 -2.2526,-0.8463 v -2.7474 h 0.1302 q 1.1589,0.8724 2.5781,1.3932 1.4193,0.5078 2.7214,0.5078 1.6146,0 2.526,-0.5208 0.9115,-0.5209 0.9115,-1.6407 0,-0.8593 -0.4948,-1.302 -0.4948,-0.4427 -1.901,-0.7552 -0.5209,-0.1172 -1.3672,-0.2735 -0.8334,-0.1562 -1.5235,-0.3385 -1.914,-0.5078 -2.7213,-1.4844 -0.7943,-0.9896 -0.7943,-2.4219 0,-0.8984 0.3646,-1.6927 0.3776,-0.7943 1.1328,-1.4193 0.7292,-0.6119 1.849,-0.9635 1.1328,-0.3646 2.526,-0.3646 1.3021,0 2.6302,0.3255 1.3412,0.3125 2.2266,0.7683 v 2.6172 h -0.1302 q -0.9375,-0.6902 -2.2787,-1.1589 -1.3411,-0.4818 -2.6302,-0.4818 -1.3411,0 -2.2656,0.5209 -0.9245,0.5078 -0.9245,1.5234 0,0.8984 0.5599,1.3542 0.5469,0.4557 1.7708,0.7422 0.6771,0.1562 1.5105,0.3125 0.8463,0.1562 1.4062,0.2864 1.7057,0.3906 2.6302,1.3412 0.9245,0.9635 0.9245,2.552 z"
       id="text15-9"
       style="font-size:26.6667px;font-family:'Bauhaus 93';-inkscape-font-specification:'Bauhaus 93, Normal';text-align:center;white-space:pre;fill:#0000ff;stroke-width:0.37795276;stroke-linecap:round;paint-order:fill markers stroke;stroke-dasharray:none"
       transform="matrix(-0.26458333,0,0,-0.26458333,819.36528,373.44721)"
       aria-label="points" />
    <path
       d="m -472.10813,-100.18755 h -2.77675 v -0.52366 h 1.06798 v -3.43821 h -1.06798 v -0.46853 q 0.21704,0 0.46508,-0.0345 0.24805,-0.0379 0.37552,-0.1068 0.15847,-0.0861 0.24805,-0.21704 0.093,-0.13436 0.1068,-0.35829 h 0.53399 v 4.62332 h 1.04731 z"
       id="text16-7"
       style="font-size:7.05556px;font-family:'Bauhaus 93';-inkscape-font-specification:'Bauhaus 93, Normal';fill:#0000ff;stroke-width:0.1;stroke-linecap:round;paint-order:fill markers stroke;stroke-dasharray:none"
       transform="scale(-1)"
       aria-label="1" />
    <path
       d="m -445.81967,-81.187553 h -3.47265 v -0.720026 q 0.36173,-0.310059 0.72347,-0.620117 0.36518,-0.310059 0.67868,-0.616673 0.66146,-0.640788 0.90606,-1.016304 0.2446,-0.37896 0.2446,-0.816488 0,-0.399631 -0.26527,-0.623563 -0.26183,-0.227376 -0.73381,-0.227376 -0.3135,0 -0.67868,0.110243 -0.36518,0.110243 -0.71313,0.33762 h -0.0345 v -0.723471 q 0.24461,-0.120578 0.65113,-0.220486 0.40996,-0.09991 0.79237,-0.09991 0.78893,0 1.23679,0.382406 0.44786,0.378961 0.44786,1.030084 0,0.292833 -0.0758,0.547771 -0.0723,0.251492 -0.21704,0.478868 -0.13436,0.213596 -0.31695,0.420302 -0.17914,0.206706 -0.43753,0.458198 -0.36862,0.361735 -0.76136,0.7028 -0.39274,0.33762 -0.73381,0.627008 h 2.75952 z"
       id="text17-7"
       style="font-size:7.05556px;font-family:'Bauhaus 93';-inkscape-font-specification:'Bauhaus 93, Normal';fill:#0000ff;stroke-width:0.1;stroke-linecap:round;paint-order:fill markers stroke;stroke-dasharray:none"
       transform="scale(-1)"
       aria-label="2" />
    <path
       d="m -369.19587,-83.774815 q 0.16537,0.148139 0.27216,0.372071 0.1068,0.223931 0.1068,0.578776 0,0.3514 -0.12747,0.644233 -0.12747,0.292834 -0.35829,0.509875 -0.25838,0.241157 -0.60978,0.35829 -0.34795,0.113688 -0.76481,0.113688 -0.42719,0 -0.84061,-0.103353 -0.41341,-0.09991 -0.67868,-0.220486 v -0.720025 h 0.0517 q 0.29283,0.192925 0.68902,0.320394 0.39618,0.127468 0.76481,0.127468 0.21704,0 0.46164,-0.07235 0.2446,-0.07235 0.39619,-0.213596 0.15847,-0.151584 0.23426,-0.334174 0.0792,-0.182591 0.0792,-0.461643 0,-0.275608 -0.0896,-0.454753 -0.0861,-0.182591 -0.24116,-0.285943 -0.15503,-0.106798 -0.37551,-0.144695 -0.22049,-0.04134 -0.47543,-0.04134 h -0.31006 v -0.571886 h 0.24116 q 0.52366,0 0.83371,-0.217041 0.31351,-0.220486 0.31351,-0.640788 0,-0.186036 -0.0792,-0.323839 -0.0792,-0.141249 -0.22049,-0.230822 -0.14813,-0.08957 -0.31694,-0.124024 -0.16881,-0.03445 -0.38241,-0.03445 -0.32728,0 -0.69591,0.117133 -0.36863,0.117133 -0.69591,0.330729 h -0.0344 v -0.720025 q 0.2446,-0.120579 0.65112,-0.220486 0.40997,-0.103353 0.79238,-0.103353 0.37551,0 0.66145,0.0689 0.28595,0.0689 0.51677,0.220486 0.24805,0.165365 0.37551,0.399631 0.12747,0.234267 0.12747,0.547771 0,0.427192 -0.30317,0.747586 -0.29972,0.316949 -0.70969,0.399631 v 0.04823 q 0.16537,0.02756 0.37897,0.117133 0.21359,0.08613 0.36173,0.217041 z"
       id="text18-6"
       style="font-size:7.05556px;font-family:'Bauhaus 93';-inkscape-font-specification:'Bauhaus 93, Normal';fill:#0000ff;stroke-width:0.1;stroke-linecap:round;paint-order:fill markers stroke;stroke-dasharray:none"
       transform="scale(-1)"
       aria-label="3" />
    <path
       d="m -344.09252,-101.63105 h -0.76136 v 1.4435 h -0.66146 v -1.4435 h -2.45636 v -0.79237 l 2.48392,-2.89388 h 0.6339 v 3.13504 h 0.76136 z m -1.42282,-0.55121 v -2.31511 l -1.98782,2.31511 z"
       id="text19-1"
       style="font-size:7.05556px;font-family:'Bauhaus 93';-inkscape-font-specification:'Bauhaus 93, Normal';fill:#0000ff;stroke-width:0.1;stroke-linecap:round;paint-order:fill markers stroke;stroke-dasharray:none"
       transform="scale(-1)"
       aria-label="4" />
    <path
       sodipodi:type="star"
       style="fill:#0000ff;stroke:none;stroke-width:0.7166821;stroke-linecap:round;stroke-opacity:1;paint-order:fill markers stroke;stroke-dasharray:none"
       id="path19-1"
       inkscape:flatsided="true"
       sodipodi:sides="3"
       sodipodi:cx="282.00662"
       sodipodi:cy="190.18756"
       sodipodi:r1="41.377659"
       sodipodi:r2="20.688829"
       sodipodi:arg1="-1.5707963"
       sodipodi:arg2="-0.52359875"
       inkscape:rounded="0"
       inkscape:randomized="0"
       d="m 282.00662,148.8099 35.83411,62.06649 -71.66821,0 z"
       inkscape:transform-center-x="-0.34249076"
       inkscape:transform-center-y="-1.1365731"
       transform="matrix(0.13953188,0,0,0.13953188,-172.27508,90.927361)" />
    <path
       sodipodi:type="star"
       style="fill:none;stroke:#ff0000;stroke-width:2.38894;stroke-linecap:round;stroke-opacity:1;paint-order:fill markers stroke;stroke-dasharray:none"
       id="path19-4"
       inkscape:flatsided="true"
       sodipodi:sides="3"
       sodipodi:cx="282.00662"
       sodipodi:cy="190.18756"
       sodipodi:r1="41.377659"
       sodipodi:r2="20.688829"
       sodipodi:arg1="-1.5707963"
       sodipodi:arg2="-0.52359875"
       inkscape:rounded="0"
       inkscape:randomized="0"
       d="m 282.00662,148.8099 35.83411,62.06649 -71.66821,0 z"
       inkscape:transform-center-x="-0.10274476"
       inkscape:transform-center-y="-0.34097563"
       transform="matrix(0.04185957,0,0,0.04185957,-144.73084,107.04599)" />
    <path
       sodipodi:type="star"
       style="fill:none;stroke:#ff0000;stroke-width:2.38894016;stroke-linecap:round;stroke-opacity:1;paint-order:fill markers stroke;stroke-dasharray:none"
       id="path19-4-8"
       inkscape:flatsided="true"
       sodipodi:sides="3"
       sodipodi:cx="282.00662"
       sodipodi:cy="190.18756"
       sodipodi:r1="41.377659"
       sodipodi:r2="20.688829"
       sodipodi:arg1="-1.5707963"
       sodipodi:arg2="-0.52359875"
       inkscape:rounded="0"
       inkscape:randomized="0"
       d="m 282.00662,148.8099 35.83411,62.06649 -71.66821,0 z"
       inkscape:transform-center-x="7.1343519"
       inkscape:transform-center-y="-2.1049711"
       transform="matrix(-0.02098844,-0.03621752,0.03621752,-0.02098844,-136.02628,132.90207)" />
    <path
       sodipodi:type="star"
       style="fill:none;stroke:#ff0000;stroke-width:2.38893985;stroke-linecap:round;stroke-opacity:1;paint-order:fill markers stroke;stroke-dasharray:none"
       id="path19-4-4"
       inkscape:flatsided="true"
       sodipodi:sides="3"
       sodipodi:cx="282.00662"
       sodipodi:cy="190.18756"
       sodipodi:r1="41.377659"
       sodipodi:r2="20.688829"
       sodipodi:arg1="-1.5707963"
       sodipodi:arg2="-0.52359875"
       inkscape:rounded="0"
       inkscape:randomized="0"
       d="m 282.00662,148.8099 35.83411,62.06649 -71.66821,0 z"
       inkscape:transform-center-x="-7.1237615"
       inkscape:transform-center-y="-2.0699053"
       transform="matrix(-0.02098077,0.03622197,-0.03622197,-0.02098077,-117.98997,112.46471)" />
    <path
       sodipodi:type="star"
       style="fill:#0000ff;stroke:none;stroke-width:0.7166821;stroke-linecap:round;stroke-opacity:1;paint-order:fill markers stroke;stroke-dasharray:none"
       id="path19-1-2"
       inkscape:flatsided="true"
       sodipodi:sides="3"
       sodipodi:cx="282.00662"
       sodipodi:cy="190.18756"
       sodipodi:r1="41.377659"
       sodipodi:r2="20.688829"
       sodipodi:arg1="-1.5707963"
       sodipodi:arg2="-0.52359875"
       inkscape:rounded="0"
       inkscape:randomized="0"
       d="m 282.00662,148.8099 35.83411,62.06649 -71.66821,0 z"
       inkscape:transform-center-x="-0.34249076"
       inkscape:transform-center-y="-1.1365731"
       transform="matrix(0.13953188,0,0,0.13953188,370.15356,273.11814)" />
    <path
       sodipodi:type="star"
       style="fill:none;stroke:#ff0000;stroke-width:2.38894;stroke-linecap:round;stroke-opacity:1;paint-order:fill markers stroke;stroke-dasharray:none"
       id="path19-4-0"
       inkscape:flatsided="true"
       sodipodi:sides="3"
       sodipodi:cx="282.00662"
       sodipodi:cy="190.18756"
       sodipodi:r1="41.377659"
       sodipodi:r2="20.688829"
       sodipodi:arg1="-1.5707963"
       sodipodi:arg2="-0.52359875"
       inkscape:rounded="0"
       inkscape:randomized="0"
       d="m 282.00662,148.8099 35.83411,62.06649 -71.66821,0 z"
       inkscape:transform-center-x="-0.10274476"
       inkscape:transform-center-y="-0.34097563"
       transform="matrix(0.04185957,0,0,0.04185957,397.6978,289.23677)" />
    <path
       sodipodi:type="star"
       style="fill:none;stroke:#ff0000;stroke-width:2.38894016;stroke-linecap:round;stroke-opacity:1;paint-order:fill markers stroke;stroke-dasharray:none"
       id="path19-4-8-1"
       inkscape:flatsided="true"
       sodipodi:sides="3"
       sodipodi:cx="282.00662"
       sodipodi:cy="190.18756"
       sodipodi:r1="41.377659"
       sodipodi:r2="20.688829"
       sodipodi:arg1="-1.5707963"
       sodipodi:arg2="-0.52359875"
       inkscape:rounded="0"
       inkscape:randomized="0"
       d="m 282.00662,148.8099 35.83411,62.06649 -71.66821,0 z"
       inkscape:transform-center-x="7.1343519"
       inkscape:transform-center-y="-2.1049711"
       transform="matrix(-0.02098844,-0.03621752,0.03621752,-0.02098844,406.40236,315.09285)" />
    <path
       sodipodi:type="star"
       style="fill:none;stroke:#ff0000;stroke-width:2.38893985;stroke-linecap:round;stroke-opacity:1;paint-order:fill markers stroke;stroke-dasharray:none"
       id="path19-4-4-6"
       inkscape:flatsided="true"
       sodipodi:sides="3"
       sodipodi:cx="282.00662"
       sodipodi:cy="190.18756"
       sodipodi:r1="41.377659"
       sodipodi:r2="20.688829"
       sodipodi:arg1="-1.5707963"
       sodipodi:arg2="-0.52359875"
       inkscape:rounded="0"
       inkscape:randomized="0"
       d="m 282.00662,148.8099 35.83411,62.06649 -71.66821,0 z"
       inkscape:transform-center-x="-7.1237615"
       inkscape:transform-center-y="-2.0699053"
       transform="matrix(-0.02098077,0.03622197,-0.03622197,-0.02098077,424.43867,294.65549)" />
    <path
       sodipodi:type="star"
       style="fill:#0000ff;stroke:none;stroke-width:0.7166821;stroke-linecap:round;stroke-opacity:1;paint-order:fill markers stroke;stroke-dasharray:none"
       id="path19-1-9"
       inkscape:flatsided="true"
       sodipodi:sides="3"
       sodipodi:cx="282.00662"
       sodipodi:cy="190.18756"
       sodipodi:r1="41.377659"
       sodipodi:r2="20.688829"
       sodipodi:arg1="-1.5707963"
       sodipodi:arg2="-0.52359875"
       inkscape:rounded="0"
       inkscape:randomized="0"
       d="m 282.00662,148.8099 35.83411,62.06649 -71.66821,0 z"
       inkscape:transform-center-x="-0.34249076"
       inkscape:transform-center-y="1.1365735"
       transform="matrix(0.13953188,0,0,-0.13953188,370.15357,107.25702)" />
    <path
       sodipodi:type="star"
       style="fill:none;stroke:#ff0000;stroke-width:2.38894;stroke-linecap:round;stroke-opacity:1;paint-order:fill markers stroke;stroke-dasharray:none"
       id="path19-4-84"
       inkscape:flatsided="true"
       sodipodi:sides="3"
       sodipodi:cx="282.00662"
       sodipodi:cy="190.18756"
       sodipodi:r1="41.377659"
       sodipodi:r2="20.688829"
       sodipodi:arg1="-1.5707963"
       sodipodi:arg2="-0.52359875"
       inkscape:rounded="0"
       inkscape:randomized="0"
       d="m 282.00662,148.8099 35.83411,62.06649 -71.66821,0 z"
       inkscape:transform-center-x="-0.10274476"
       inkscape:transform-center-y="0.34097606"
       transform="matrix(0.04185957,0,0,-0.04185957,397.69781,91.138389)" />
    <path
       sodipodi:type="star"
       style="fill:none;stroke:#ff0000;stroke-width:2.38894016;stroke-linecap:round;stroke-opacity:1;paint-order:fill markers stroke;stroke-dasharray:none"
       id="path19-4-8-14"
       inkscape:flatsided="true"
       sodipodi:sides="3"
       sodipodi:cx="282.00662"
       sodipodi:cy="190.18756"
       sodipodi:r1="41.377659"
       sodipodi:r2="20.688829"
       sodipodi:arg1="-1.5707963"
       sodipodi:arg2="-0.52359875"
       inkscape:rounded="0"
       inkscape:randomized="0"
       d="m 282.00662,148.8099 35.83411,62.06649 -71.66821,0 z"
       inkscape:transform-center-x="7.1343519"
       inkscape:transform-center-y="2.1049715"
       transform="matrix(-0.02098844,0.03621752,0.03621752,0.02098844,406.40237,65.282306)" />
    <path
       sodipodi:type="star"
       style="fill:none;stroke:#ff0000;stroke-width:2.38893985;stroke-linecap:round;stroke-opacity:1;paint-order:fill markers stroke;stroke-dasharray:none"
       id="path19-4-4-3"
       inkscape:flatsided="true"
       sodipodi:sides="3"
       sodipodi:cx="282.00662"
       sodipodi:cy="190.18756"
       sodipodi:r1="41.377659"
       sodipodi:r2="20.688829"
       sodipodi:arg1="-1.5707963"
       sodipodi:arg2="-0.52359875"
       inkscape:rounded="0"
       inkscape:randomized="0"
       d="m 282.00662,148.8099 35.83411,62.06649 -71.66821,0 z"
       inkscape:transform-center-x="-7.1237615"
       inkscape:transform-center-y="2.0699057"
       transform="matrix(-0.02098077,-0.03622197,-0.03622197,0.02098077,424.43868,85.719669)" />
    <path
       id="path11-1-7"
       style="fill:none;stroke:#ff0000;stroke-width:0.1;stroke-linecap:round;stroke-opacity:1;paint-order:fill markers stroke;stroke-dasharray:none"
       sodipodi:type="inkscape:offset"
       inkscape:radius="0"
       inkscape:original="M 124.84961 46.1875 C 124.84961 46.1875 124.84944 85.712806 122.46289 101.76758 C 120.29384 116.35927 96.151486 138.05222 85.634766 159.70117 C 83.036806 165.04916 79.849609 172.74189 79.849609 178.6875 C 79.849609 197.99636 98.306229 206.18752 107.34961 206.1875 C 116.39299 206.18748 122.53143 201.61673 127.72461 197.15625 C 134.44227 191.38638 148.49538 176.77365 158.66211 170.30664 C 168.82884 163.83963 184.84961 164.9375 184.84961 164.9375 C 184.84961 164.9375 200.87038 163.83963 211.03711 170.30664 C 221.20384 176.77365 235.25694 191.38638 241.97461 197.15625 C 247.16778 201.61673 253.30623 206.18748 262.34961 206.1875 C 271.39299 206.18752 289.84961 197.99636 289.84961 178.6875 C 289.84961 172.74189 286.66437 165.04916 284.06641 159.70117 C 273.54969 138.05222 249.40539 116.35927 247.23633 101.76758 C 244.84979 85.712806 244.84961 46.1875 244.84961 46.1875 L 124.84961 46.1875 z "
       d="m 124.84961,46.1875 c 0,0 -1.7e-4,39.525306 -2.38672,55.58008 -2.16905,14.59169 -26.311404,36.28464 -36.828124,57.93359 -2.59796,5.34799 -5.785157,13.04072 -5.785157,18.98633 0,19.30886 18.45662,27.50002 27.500001,27.5 9.04338,-2e-5 15.18182,-4.57077 20.375,-9.03125 6.71766,-5.76987 20.77077,-20.3826 30.9375,-26.84961 10.16673,-6.46701 26.1875,-5.36914 26.1875,-5.36914 0,0 16.02077,-1.09787 26.1875,5.36914 10.16673,6.46701 24.21983,21.07974 30.9375,26.84961 5.19317,4.46048 11.33162,9.03123 20.375,9.03125 9.04338,2e-5 27.5,-8.19114 27.5,-27.5 0,-5.94561 -3.18524,-13.63834 -5.7832,-18.98633 -10.51672,-21.64895 -34.66102,-43.3419 -36.83008,-57.93359 -2.38654,-16.054774 -2.38672,-55.58008 -2.38672,-55.58008 z"
       transform="translate(649.65297,-237.4424)" />
    <path
       id="path11-1-7-3"
       style="fill:none;stroke:#ff0000;stroke-width:0.1;stroke-linecap:round;stroke-opacity:1;paint-order:fill markers stroke;stroke-dasharray:none"
       sodipodi:type="inkscape:offset"
       inkscape:radius="-5.5063124"
       inkscape:original="M 124.84961 46.1875 C 124.84961 46.1875 124.84944 85.712804 122.46289 101.76758 C 120.29384 116.35927 96.151486 138.05222 85.634766 159.70117 C 83.036806 165.04916 79.849609 172.74189 79.849609 178.6875 C 79.849609 197.99636 98.306228 206.18752 107.34961 206.1875 C 116.39299 206.18748 122.53143 201.61673 127.72461 197.15625 C 134.44227 191.38638 148.49538 176.77365 158.66211 170.30664 C 168.82884 163.83963 184.84961 164.9375 184.84961 164.9375 C 184.84961 164.9375 200.87038 163.83963 211.03711 170.30664 C 221.20384 176.77365 235.25694 191.38638 241.97461 197.15625 C 247.16778 201.61673 253.30623 206.18748 262.34961 206.1875 C 271.39299 206.18752 289.84961 197.99636 289.84961 178.6875 C 289.84961 172.74189 286.66437 165.04916 284.06641 159.70117 C 273.54969 138.05222 249.40539 116.35927 247.23633 101.76758 C 244.84979 85.712804 244.84961 46.1875 244.84961 46.1875 L 124.84961 46.1875 z "
       d="m 130.29102,51.693359 c -0.0105,7.797841 -0.12853,35.732904 -2.38086,50.884771 -1.46304,9.84214 -8.68606,18.83617 -16.35938,28.85742 -7.67332,10.02124 -16.112286,20.68677 -20.962889,30.67187 -2.464546,5.07335 -5.232422,12.60228 -5.232422,16.58008 0,7.9 3.522101,12.98593 8.230468,16.64258 4.708368,3.65664 10.904463,5.35157 13.763673,5.35156 7.18803,-2e-5 11.81043,-3.4286 16.78711,-7.70312 6.11118,-5.24896 20.173,-20.06859 31.57031,-27.31836 12.19651,-7.75815 28.08036,-6.34191 29.14258,-6.23829 1.06222,-0.10362 16.94607,-1.51986 29.14258,6.23829 11.39731,7.24978 25.45913,22.0694 31.57031,27.31836 4.97666,4.27451 9.59908,7.7031 16.78711,7.70312 2.85921,1e-5 9.0553,-1.69492 13.76367,-5.35156 4.70837,-3.65665 8.23047,-8.74258 8.23047,-16.64258 0,-3.97901 -2.7664,-11.5077 -5.23047,-16.58008 -4.85054,-9.98498 -13.29104,-20.65064 -20.96484,-30.67187 -7.67381,-10.02124 -14.8963,-19.01504 -16.35938,-28.85742 -2.25232,-15.15186 -2.37035,-43.086929 -2.38086,-50.884771 z"
       transform="translate(649.65297,-237.4424)" />
    <path
       id="path11-1-7-0"
       style="fill:none;stroke:#ff0000;stroke-width:0.1;stroke-linecap:round;stroke-opacity:1;paint-order:fill markers stroke;stroke-dasharray:none"
       sodipodi:type="inkscape:offset"
       inkscape:radius="0"
       inkscape:original="M 124.84961 46.1875 C 124.84961 46.1875 124.84944 85.712806 122.46289 101.76758 C 120.29384 116.35927 96.151486 138.05222 85.634766 159.70117 C 83.036806 165.04916 79.849609 172.74189 79.849609 178.6875 C 79.849609 197.99636 98.306229 206.18752 107.34961 206.1875 C 116.39299 206.18748 122.53143 201.61673 127.72461 197.15625 C 134.44227 191.38638 148.49538 176.77365 158.66211 170.30664 C 168.82884 163.83963 184.84961 164.9375 184.84961 164.9375 C 184.84961 164.9375 200.87038 163.83963 211.03711 170.30664 C 221.20384 176.77365 235.25694 191.38638 241.97461 197.15625 C 247.16778 201.61673 253.30623 206.18748 262.34961 206.1875 C 271.39299 206.18752 289.84961 197.99636 289.84961 178.6875 C 289.84961 172.74189 286.66437 165.04916 284.06641 159.70117 C 273.54969 138.05222 249.40539 116.35927 247.23633 101.76758 C 244.84979 85.712806 244.84961 46.1875 244.84961 46.1875 L 124.84961 46.1875 z "
       d="m 124.84961,46.1875 c 0,0 -1.7e-4,39.525306 -2.38672,55.58008 -2.16905,14.59169 -26.311404,36.28464 -36.828124,57.93359 -2.59796,5.34799 -5.785157,13.04072 -5.785157,18.98633 0,19.30886 18.45662,27.50002 27.500001,27.5 9.04338,-2e-5 15.18182,-4.57077 20.375,-9.03125 6.71766,-5.76987 20.77077,-20.3826 30.9375,-26.84961 10.16673,-6.46701 26.1875,-5.36914 26.1875,-5.36914 0,0 16.02077,-1.09787 26.1875,5.36914 10.16673,6.46701 24.21983,21.07974 30.9375,26.84961 5.19317,4.46048 11.33162,9.03123 20.375,9.03125 9.04338,2e-5 27.5,-8.19114 27.5,-27.5 0,-5.94561 -3.18524,-13.63834 -5.7832,-18.98633 -10.51672,-21.64895 -34.66102,-43.3419 -36.83008,-57.93359 -2.38654,-16.054774 -2.38672,-55.58008 -2.38672,-55.58008 z"
       transform="matrix(1,0,0,-1,649.65297,-145.0674)" />
    <path
       id="path11-1-7-3-8"
       style="fill:none;stroke:#ff0000;stroke-width:0.1;stroke-linecap:round;stroke-opacity:1;paint-order:fill markers stroke;stroke-dasharray:none"
       sodipodi:type="inkscape:offset"
       inkscape:radius="-5.5063124"
       inkscape:original="M 124.84961 46.1875 C 124.84961 46.1875 124.84944 85.712804 122.46289 101.76758 C 120.29384 116.35927 96.151486 138.05222 85.634766 159.70117 C 83.036806 165.04916 79.849609 172.74189 79.849609 178.6875 C 79.849609 197.99636 98.306228 206.18752 107.34961 206.1875 C 116.39299 206.18748 122.53143 201.61673 127.72461 197.15625 C 134.44227 191.38638 148.49538 176.77365 158.66211 170.30664 C 168.82884 163.83963 184.84961 164.9375 184.84961 164.9375 C 184.84961 164.9375 200.87038 163.83963 211.03711 170.30664 C 221.20384 176.77365 235.25694 191.38638 241.97461 197.15625 C 247.16778 201.61673 253.30623 206.18748 262.34961 206.1875 C 271.39299 206.18752 289.84961 197.99636 289.84961 178.6875 C 289.84961 172.74189 286.66437 165.04916 284.06641 159.70117 C 273.54969 138.05222 249.40539 116.35927 247.23633 101.76758 C 244.84979 85.712804 244.84961 46.1875 244.84961 46.1875 L 124.84961 46.1875 z "
       d="m 130.29102,51.693359 c -0.0105,7.797841 -0.12853,35.732904 -2.38086,50.884771 -1.46304,9.84214 -8.68606,18.83617 -16.35938,28.85742 -7.67332,10.02124 -16.112286,20.68677 -20.962889,30.67187 -2.464546,5.07335 -5.232422,12.60228 -5.232422,16.58008 0,7.9 3.522101,12.98593 8.230468,16.64258 4.708368,3.65664 10.904463,5.35157 13.763673,5.35156 7.18803,-2e-5 11.81043,-3.4286 16.78711,-7.70312 6.11118,-5.24896 20.173,-20.06859 31.57031,-27.31836 12.19651,-7.75815 28.08036,-6.34191 29.14258,-6.23829 1.06222,-0.10362 16.94607,-1.51986 29.14258,6.23829 11.39731,7.24978 25.45913,22.0694 31.57031,27.31836 4.97666,4.27451 9.59908,7.7031 16.78711,7.70312 2.85921,1e-5 9.0553,-1.69492 13.76367,-5.35156 4.70837,-3.65665 8.23047,-8.74258 8.23047,-16.64258 0,-3.97901 -2.7664,-11.5077 -5.23047,-16.58008 -4.85054,-9.98498 -13.29104,-20.65064 -20.96484,-30.67187 -7.67381,-10.02124 -14.8963,-19.01504 -16.35938,-28.85742 -2.25232,-15.15186 -2.37035,-43.086929 -2.38086,-50.884771 z"
       transform="matrix(1,0,0,-1,649.65297,-145.0674)" />
    <path
       d="m 1156.624,224.68189 h -119.9999 -1 c -0.3364,6.01065 -0.7857,11.53875 -1.3865,15.57993 -2.169,14.59169 -26.3115,36.28447 -36.8282,57.93342 -2.59796,5.34799 -5.78517,13.04082 -5.78517,18.98643 0,19.30886 18.45677,27.50015 27.50017,27.50013 9.0433,-2e-5 15.1818,-4.57101 20.3749,-9.03149 6.7177,-5.76987 20.7704,-20.38251 30.9372,-26.84952 10.1667,-6.46701 26.1875,-5.36918 26.1875,-5.36918 0,0 16.0208,-1.09783 26.1876,5.36918 10.1667,6.46701 24.2199,21.07965 30.9376,26.84952 5.1932,4.46048 11.3316,9.03147 20.375,9.03149 9.0434,2e-5 27.5001,-8.19127 27.5001,-27.50013 0,-5.94561 -3.1851,-13.63844 -5.7831,-18.98643 -10.5167,-21.64895 -34.6612,-43.34173 -36.8303,-57.93342 -0.6007,-4.04118 -1.0501,-9.56928 -1.3865,-15.57993 z"
       style="fill:none;stroke:#ff0000;stroke-width:0.1;stroke-linecap:round;paint-order:fill markers stroke;stroke-dasharray:none"
       id="path21" />
    <path
       id="path21-3-9"
       style="fill:none;stroke:#ff0000;stroke-width:0.1;stroke-linecap:round;paint-order:fill markers stroke;stroke-dasharray:none"
       d="M 128.20251 4.3082642 C 127.86611 10.318911 127.41683 15.847012 126.81603 19.888192 C 124.64703 34.479882 100.50397 56.172656 89.987272 77.821606 C 87.389312 83.169596 84.202096 90.862453 84.202096 96.808044 C 84.202096 116.11688 102.65929 124.30819 111.70274 124.30817 C 120.74605 124.30815 126.88463 119.73716 132.07773 115.27668 C 138.79543 109.50681 152.84806 94.894161 163.01486 88.427161 C 173.18156 81.960151 189.2024 83.057979 189.2024 83.057979 C 189.2024 83.057979 205.22315 81.960151 215.38995 88.427161 C 225.55665 94.894161 239.6099 109.50681 246.3276 115.27668 C 251.5208 119.73716 257.65918 124.30815 266.70258 124.30817 C 275.74598 124.30819 294.20271 116.11688 294.20271 96.808044 C 294.20271 90.862453 291.0176 83.169596 288.4196 77.821606 C 277.9029 56.172656 253.75839 34.479882 251.58929 19.888192 C 250.98859 15.847012 250.53922 10.318911 250.20282 4.3082642 L 249.20236 4.3082642 L 229.20203 4.3082642 L 229.20203 7.3080811 L 209.20222 7.3080811 L 209.20222 4.3082642 L 169.20208 4.3082642 L 169.20208 7.3080811 L 149.20226 7.3080811 L 149.20226 4.3082642 L 129.20245 4.3082642 L 128.20251 4.3082642 z " />
    <path
       d="m 1019.1244,24.681698 c -9.0434,-2e-5 -27.50017,8.19127 -27.50017,27.50013 0,5.94561 3.18721,13.638448 5.78517,18.986438 10.5167,21.64895 34.6592,43.341724 36.8282,57.933414 0.6008,4.04118 1.0501,9.56928 1.3865,15.57993 h 1 119.9999 1.0004 c 0.3364,-6.01065 0.7858,-11.53875 1.3865,-15.57993 2.1691,-14.59169 26.3136,-36.284464 36.8303,-57.933414 2.598,-5.34799 5.7831,-13.040828 5.7831,-18.986438 0,-19.30886 -18.4567,-27.50015 -27.5001,-27.50013 -9.0434,2e-5 -15.1818,4.57101 -20.375,9.03149 -6.7177,5.76987 -20.7709,20.382514 -30.9376,26.849524 -10.1668,6.46701 -26.1876,5.369181 -26.1876,5.369181 0,0 -16.0208,1.097829 -26.1875,-5.369181 -10.1668,-6.46701 -24.2195,-21.079654 -30.9372,-26.849524 -5.1931,-4.46048 -11.3316,-9.03147 -20.3749,-9.03149 z"
       style="fill:none;stroke:#ff0000;stroke-width:0.1;stroke-linecap:round;paint-order:fill markers stroke;stroke-dasharray:none"
       id="path10" />
    <path
       id="path28"
       style="fill:none;stroke:#ff0000;stroke-width:0.1;stroke-miterlimit:9.8;paint-order:fill markers stroke;stroke-dasharray:none"
       d="m 931.31453,271.76319 c -9.19121,-11.97886 -17.99544,-22.95751 -19.26549,-31.50144 -2.38654,-16.05477 -2.38694,-55.58007 -2.38694,-55.58007 h -8.83313 c 0,0 3.52053,41.2385 5.77285,56.39036 1.46308,9.84238 8.6854,18.83643 16.35921,28.85767 2.15227,2.81064 4.36495,5.67171 6.54172,8.55451 m -110.59738,33.54265 c 1.58076,-1.20893 3.11469,-2.30093 4.56923,-3.22616 10.16673,-6.46701 26.18755,-5.36918 26.18755,-5.36918 0,0 16.02081,-1.09783 26.18754,5.36918 1.45454,0.92523 2.98898,2.01723 4.56975,3.22616 M 769.82206,278.48474 c 2.17663,-2.88295 4.38947,-5.74424 6.54172,-8.55503 7.67332,-10.02125 14.89617,-19.01553 16.35921,-28.85767 2.25233,-15.15187 4.80637,-56.39036 4.80637,-56.39036 l -7.86717,0 c 0,0 1.3e-4,39.5253 -2.38642,55.58007 -1.27009,8.54421 -10.07451,19.52316 -19.26549,31.50247 m 24.71271,-30.69218 c -1.46304,9.84214 -8.68589,18.83642 -16.35921,28.85767 -2.15225,2.81079 -4.36509,5.67208 -6.54172,8.55503 6.09702,17.60673 21.72349,30.68634 40.77012,33.12976 3.36291,-2.82773 6.74887,-5.43807 9.92756,-7.46001 12.19651,-7.75815 28.08019,-6.342 29.14241,-6.23838 1.06222,-0.10362 16.94641,-1.51977 29.14292,6.23838 3.17869,2.02195 6.56464,4.63227 9.92756,7.46001 19.04682,-2.44341 34.67319,-15.52329 40.77012,-33.13028 -2.17677,-2.8828 -4.38945,-5.74387 -6.54172,-8.55451 -7.67381,-10.02124 -14.89613,-19.01529 -16.35921,-28.85767 m -26.18238,70.95483 c 9.4683,7.24113 20.61131,18.67898 26.3679,23.62337 5.19317,4.46048 11.3316,9.03147 20.37498,9.03149 9.04338,2e-5 27.50014,-8.19127 27.50014,-27.50013 0,-5.94561 -3.18515,-13.63845 -5.78311,-18.98644 -4.35883,-8.97275 -11.0589,-17.95284 -17.56482,-26.43197 m -163.30425,10e-4 c -6.50525,8.47879 -13.20413,17.4586 -17.56275,26.43094 -2.59796,5.34799 -5.78518,13.04083 -5.78518,18.98644 0,19.30886 18.45675,27.50015 27.50013,27.50013 9.04338,-2e-5 15.18181,-4.57101 20.37499,-9.03149 5.75658,-4.94439 16.8996,-16.38224 26.3679,-23.62337"
       sodipodi:nodetypes="csccssccscsccssccsccsccscsccsccssssccssssc" />
    <path
       id="path28-0"
       style="fill:none;stroke:#ff0000;stroke-width:0.1;stroke-miterlimit:9.8;paint-order:fill markers stroke;stroke-dasharray:none"
       d="m 931.31453,97.60017 c -9.19121,11.97886 -17.99544,22.95751 -19.26549,31.50144 -2.38654,16.05477 -2.38694,55.58007 -2.38694,55.58007 h -8.83313 c 0,0 3.52053,-41.2385 5.77285,-56.39036 1.46308,-9.84238 8.6854,-18.83643 16.35921,-28.85767 2.15227,-2.81064 4.36495,-5.67171 6.54172,-8.55451 M 818.90537,57.33649 c 1.58076,1.20893 3.11469,2.30093 4.56923,3.22616 10.16673,6.46701 26.18755,5.36918 26.18755,5.36918 0,0 16.02081,1.09783 26.18754,-5.36918 1.45454,-0.92523 2.98898,-2.01723 4.56975,-3.22616 M 769.82206,90.87862 c 2.17663,2.88295 4.38947,5.74424 6.54172,8.55503 7.67332,10.02125 15.31235,16.57547 16.35921,28.85767 4.80637,56.39036 4.80637,56.39036 4.80637,56.39036 l -7.86717,0 c 0,0 1.3e-4,-39.5253 -2.38642,-55.58007 -1.27009,-8.54421 -10.07451,-19.52316 -19.26549,-31.50247 m 8.3535,1.83451 c -2.15225,-2.81079 -4.36509,-5.67208 -6.54172,-8.55503 6.09702,-17.60673 21.72349,-30.68634 40.77012,-33.12976 3.36291,2.82773 6.74887,5.43807 9.92756,7.46001 12.19651,7.75815 28.08019,6.342 29.14241,6.23838 1.06222,0.10362 16.94641,1.51977 29.14292,-6.23838 3.17869,-2.02195 6.56464,-4.63227 9.92756,-7.46001 19.04682,2.44341 34.67319,15.52329 40.77012,33.13028 -2.17677,2.8828 -4.38945,5.74387 -6.54172,8.55451 -7.67381,10.02124 -14.89613,19.01529 -16.35921,28.85767 M 880.41944,57.33649 c 9.4683,-7.24113 20.61131,-18.67898 26.3679,-23.62337 5.19317,-4.46048 11.3316,-9.03147 20.37498,-9.03149 9.04338,-2e-5 27.50014,8.19127 27.50014,27.50013 0,5.94561 -3.18515,13.63845 -5.78311,18.98644 -4.35883,8.97275 -11.0589,17.95284 -17.56482,26.43197 m -163.30425,-0.001 c -6.50525,-8.47879 -13.20413,-17.4586 -17.56275,-26.43094 -2.59796,-5.34799 -5.78518,-13.04083 -5.78518,-18.98644 0,-19.30886 18.45675,-27.50015 27.50013,-27.50013 9.04338,2e-5 15.18181,4.57101 20.37499,9.03149 5.75658,4.94439 16.8996,16.38224 26.3679,23.62337"
       sodipodi:nodetypes="csccssccscsccssccsccccscsccsccssssccssssc" />
    <path
       id="path28-8"
       style="fill:none;stroke:#ff0000;stroke-width:0.1;stroke-miterlimit:9.8;paint-order:fill markers stroke;stroke-dasharray:none"
       d="m 716.34786,282.80031 c -9.19121,-11.97886 -17.99544,-22.95751 -19.26549,-31.50144 -2.38654,-16.05477 -2.38694,-55.58007 -2.38694,-55.58007 l -22.19707,0 c -0.01,1.84787 -0.30262,5.06069 0.22568,6.25104 0,0 16.65879,34.98746 18.91111,50.13932 1.46308,9.84238 8.6854,18.83643 16.35921,28.85767 2.15227,2.81064 4.36495,5.67171 6.54172,8.55451 M 603.9387,323.06399 c 1.58076,-1.20893 3.11469,-2.30093 4.56923,-3.22616 10.16673,-6.46701 26.18755,-5.36918 26.18755,-5.36918 0,0 16.02081,-1.09783 26.18754,5.36918 1.45454,0.92523 2.98898,2.01723 4.56975,3.22616 M 554.85539,289.52186 c 2.17663,-2.88295 4.38947,-5.74424 6.54172,-8.55503 7.67332,-10.02125 14.89617,-19.01553 16.35921,-28.85767 2.25233,-15.15187 18.7957,-50.90876 18.7957,-50.90876 0.64372,-1.2864 0.28269,-3.63373 0.27319,-5.4816 l -22.12968,0 c 0,0 1.3e-4,39.5253 -2.38642,55.58007 -1.27009,8.54421 -10.07451,19.52316 -19.26549,31.50247 m 24.71271,-30.69218 c -1.46304,9.84214 -8.68589,18.83642 -16.35921,28.85767 -2.15225,2.81079 -4.36509,5.67208 -6.54172,8.55503 6.09702,17.60673 21.72349,30.68634 40.77012,33.12976 3.36291,-2.82773 6.74887,-5.43807 9.92756,-7.46001 12.19651,-7.75815 28.08019,-6.342 29.14241,-6.23838 1.06222,-0.10362 16.94641,-1.51977 29.14292,6.23838 3.17869,2.02195 6.56464,4.63227 9.92756,7.46001 19.04682,-2.44341 34.67319,-15.52329 40.77012,-33.13028 -2.17677,-2.8828 -4.38945,-5.74387 -6.54172,-8.55451 -7.67381,-10.02124 -14.89613,-19.01529 -16.35921,-28.85767 m -26.18238,70.95483 c 9.4683,7.24113 20.61131,18.67898 26.3679,23.62337 5.19317,4.46048 11.3316,9.03147 20.37498,9.03149 9.04338,2e-5 27.50014,-8.19127 27.50014,-27.50013 0,-5.94561 -3.18515,-13.63845 -5.78311,-18.98644 -4.35883,-8.97275 -11.0589,-17.95284 -17.56482,-26.43197 m -163.30425,10e-4 c -6.50525,8.47879 -13.20413,17.4586 -17.56275,26.43094 -2.59796,5.34799 -5.78518,13.04083 -5.78518,18.98644 0,19.30886 18.45675,27.50015 27.50013,27.50013 9.04338,-2e-5 15.18181,-4.57101 20.37499,-9.03149 5.75658,-4.94439 16.8996,-16.38224 26.3679,-23.62337"
       sodipodi:nodetypes="cscccssccscsccsscccsccsccscsccsccssssccssssc" />
    <path
       id="path28-8-5"
       style="fill:none;stroke:#ff0000;stroke-width:0.1;stroke-miterlimit:9.8;paint-order:fill markers stroke;stroke-dasharray:none"
       d="m 716.34786,108.63729 c -9.19121,11.97886 -17.99544,22.95751 -19.26549,31.50144 -2.38654,16.05477 -2.38694,55.58007 -2.38694,55.58007 h -22.19707 c -0.01,-1.84787 -0.30262,-5.06069 0.22568,-6.25104 0,0 16.65879,-34.98746 18.91111,-50.13932 1.46308,-9.84238 8.6854,-18.83643 16.35921,-28.85767 2.15227,-2.81064 4.36495,-5.67171 6.54172,-8.55451 M 603.9387,68.37361 c 1.58076,1.20893 3.11469,2.30093 4.56923,3.22616 10.16673,6.46701 26.18755,5.36918 26.18755,5.36918 0,0 16.02081,1.09783 26.18754,-5.36918 1.45454,-0.92523 2.98898,-2.01723 4.56975,-3.22616 m -110.59738,33.54213 c 2.17663,2.88295 4.38947,5.74424 6.54172,8.55503 7.67332,10.02125 14.89617,19.01553 16.35921,28.85767 2.25233,15.15187 18.7957,50.90876 18.7957,50.90876 0.64372,1.2864 0.28269,3.63373 0.27319,5.4816 h -22.12968 c 0,0 1.3e-4,-39.5253 -2.38642,-55.58007 -1.27009,-8.54421 -10.07451,-19.52316 -19.26549,-31.50247 m 24.71271,30.69218 c -1.46304,-9.84214 -8.68589,-18.83642 -16.35921,-28.85767 -2.15225,-2.81079 -4.36509,-5.67208 -6.54172,-8.55503 6.09702,-17.60673 21.72349,-30.68634 40.77012,-33.12976 3.36291,2.82773 6.74887,5.43807 9.92756,7.46001 12.19651,7.75815 28.08019,6.342 29.14241,6.23838 1.06222,0.10362 16.94641,1.51977 29.14292,-6.23838 3.17869,-2.02195 6.56464,-4.63227 9.92756,-7.46001 19.04682,2.44341 34.67319,15.52329 40.77012,33.13028 -2.17677,2.8828 -4.38945,5.74387 -6.54172,8.55451 -7.67381,10.02124 -14.89613,19.01529 -16.35921,28.85767 M 665.45278,68.37361 c 9.4683,-7.24113 20.61131,-18.67898 26.3679,-23.62337 5.19317,-4.46048 11.3316,-9.03147 20.37498,-9.03149 9.04338,-2e-5 27.50014,8.19127 27.50014,27.50013 0,5.94561 -3.18515,13.63845 -5.78311,18.98644 -4.35883,8.97275 -11.0589,17.95284 -17.56482,26.43197 m -163.30425,-10e-4 c -6.50525,-8.47879 -13.20413,-17.4586 -17.56275,-26.43094 -2.59796,-5.34799 -5.78518,-13.04083 -5.78518,-18.98644 0,-19.30886 18.45675,-27.50015 27.50013,-27.50013 9.04338,2e-5 15.18181,4.57101 20.37499,9.03149 5.75658,4.94439 16.8996,16.38224 26.3679,23.62337"
       sodipodi:nodetypes="cscccssccscsccsscccsccsccscsccsccssssccssssc" />
    <circle
       style="fill:none;stroke:#ff0000;stroke-width:0.1;stroke-linecap:round;stroke-opacity:1;paint-order:fill markers stroke;stroke-dasharray:none"
       id="path13-8"
       cx="86.329147"
       cy="405.80978"
       r="30" />
    <circle
       style="fill:none;stroke:#ff0000;stroke-width:0.1;stroke-linecap:round;stroke-opacity:1;paint-order:fill markers stroke;stroke-dasharray:none"
       id="path13-8-1"
       cx="86.329147"
       cy="405.80978"
       r="35" />
    <circle
       style="fill:none;stroke:#ff0000;stroke-width:0.1;stroke-linecap:round;stroke-opacity:1;paint-order:fill markers stroke;stroke-dasharray:none"
       id="path13-8-6"
       cx="212.62029"
       cy="442.44003"
       r="30" />
    <circle
       style="fill:none;stroke:#ff0000;stroke-width:0.1;stroke-linecap:round;stroke-opacity:1;paint-order:fill markers stroke;stroke-dasharray:none"
       id="path13-8-1-1"
       cx="212.62029"
       cy="442.44003"
       r="35" />
    <circle
       style="fill:none;stroke:#ff0000;stroke-width:0.1;stroke-linecap:round;stroke-opacity:1;paint-order:fill markers stroke;stroke-dasharray:none"
       id="path13-8-6-1"
       cx="245.8727"
       cy="165.43983"
       r="28.25" />
    <circle
       style="fill:none;stroke:#ff0000;stroke-width:0.1;stroke-linecap:round;stroke-opacity:1;paint-order:fill markers stroke;stroke-dasharray:none"
       id="path13-8-1-1-7"
       cx="245.8727"
       cy="165.43983"
       r="35" />
    <circle
       style="fill:none;stroke:#ff0000;stroke-width:0.1;stroke-linecap:round;stroke-opacity:1;paint-order:fill markers stroke;stroke-dasharray:none"
       id="path13-8-2"
       cx="634.69574"
       cy="195.7188"
       r="30" />
    <circle
       style="fill:none;stroke:#ff0000;stroke-width:0.1;stroke-linecap:round;stroke-opacity:1;paint-order:fill markers stroke;stroke-dasharray:none"
       id="path13-8-1-7"
       cx="634.69574"
       cy="195.7188"
       r="35" />
    <circle
       style="fill:#0000ff;stroke:#ff0000;stroke-width:0.1;stroke-linecap:round;stroke-opacity:1;paint-order:fill markers stroke;stroke-dasharray:none"
       id="path13-3"
       cx="409.50247"
       cy="-30.348711"
       r="30" />
    <rect
       style="fill:none;stroke:#ff0000;stroke-width:0.1;stroke-miterlimit:13.9;paint-order:fill markers stroke;stroke-dasharray:none"
       id="rect22"
       width="120"
       height="80.000275"
       x="1036.124"
       y="144.68161" />
    <circle
       style="fill:none;stroke:#ff0000;stroke-width:0.1;stroke-linecap:round;stroke-opacity:1;paint-order:fill markers stroke;stroke-dasharray:none"
       id="path12-1-2-5-9-8"
       cx="-364.50244"
       cy="-190.18756"
       r="5"
       transform="scale(-1)" />
    <circle
       style="fill:none;stroke:#ff0000;stroke-width:0.1;stroke-linecap:round;stroke-opacity:1;paint-order:fill markers stroke;stroke-dasharray:none"
       id="path12-1-2-5-9-89"
       cx="-454.50253"
       cy="-190.18756"
       r="5"
       transform="scale(-1)" />
    <path
       style="fill:none;stroke:#ff0000;stroke-width:0.1;stroke-miterlimit:13.9;paint-order:fill markers stroke;stroke-dasharray:none"
       d="m 387.51995,311.71427 c -6.47992,-16.04706 -12.95971,-32.0938 -12.24041,-46.39101 0.71929,-14.2972 8.63762,-26.84373 16.5561,-39.3905 0,0 -6.27114,-4.68017 -6.27114,-4.68017 -8.59659,14.10683 -17.19302,28.21338 -18.06048,43.8702 -0.86747,15.65682 5.99408,32.86264 12.85577,50.06882 z"
       id="path5"
       sodipodi:nodetypes="ccccccc"
       transform="translate(225.19329)" />
    <path
       style="fill:none;stroke:#ff0000;stroke-width:0.1;stroke-miterlimit:13.9;paint-order:fill markers stroke;stroke-dasharray:none"
       d="m 387.51995,311.71427 c -6.47992,-16.04706 -12.95971,-32.0938 -12.24041,-46.39101 0.71929,-14.2972 8.63762,-26.84373 16.5561,-39.3905 0,0 -6.27114,-4.68017 -6.27114,-4.68017 -8.59659,14.10683 -17.19302,28.21338 -18.06048,43.8702 -0.86747,15.65682 5.99408,32.86264 12.85577,50.06882 z"
       id="path5-1"
       sodipodi:nodetypes="ccccccc"
       transform="matrix(-1,0,0,1,1044.1982,0)" />
    <path
       style="fill:none;stroke:#ff0000;stroke-width:0.1;stroke-miterlimit:13.9;paint-order:fill markers stroke;stroke-dasharray:none"
       d="m 387.51995,311.71427 c -6.47992,-16.04706 -12.95971,-32.0938 -12.24041,-46.39101 0.71929,-14.2972 8.63762,-26.84373 16.5561,-39.3905 0,0 -6.27114,-4.68017 -6.27114,-4.68017 -8.59659,14.10683 -17.19302,28.21338 -18.06048,43.8702 -0.86747,15.65682 5.99408,32.86264 12.85577,50.06882 z"
       id="path5-4"
       sodipodi:nodetypes="ccccccc"
       transform="matrix(1,0,0,-1,225.19329,391.23715)" />
    <path
       style="fill:none;stroke:#ff0000;stroke-width:0.1;stroke-miterlimit:13.9;paint-order:fill markers stroke;stroke-dasharray:none"
       d="m 387.51995,311.71427 c -6.47992,-16.04706 -12.95971,-32.0938 -12.24041,-46.39101 0.71929,-14.2972 8.63762,-26.84373 16.5561,-39.3905 0,0 -6.27114,-4.68017 -6.27114,-4.68017 -8.59659,14.10683 -17.19302,28.21338 -18.06048,43.8702 -0.86747,15.65682 5.99408,32.86264 12.85577,50.06882 z"
       id="path5-1-2"
       sodipodi:nodetypes="ccccccc"
       transform="rotate(180,522.0991,195.61862)" />
    <rect
       style="fill:#ffd42a;stroke:#ff0000;stroke-width:0.1;stroke-miterlimit:13.9;paint-order:fill markers stroke;stroke-dasharray:none"
       id="rect9"
       width="297"
       height="210"
       x="0"
       y="318.41211" />
    <rect
       style="fill:none;stroke:#ff0000;stroke-width:0.1;stroke-miterlimit:13.9;paint-order:fill markers stroke;stroke-dasharray:none"
       id="rect22-6"
       width="120"
       height="80.000275"
       x="389.50247"
       y="449.992" />
    <path
       id="path28-0-1"
       style="fill:none;stroke:#ff0000;stroke-width:0.1;stroke-miterlimit:9.8;paint-order:fill markers stroke;stroke-dasharray:none"
       d="m 188.76886,394.50567 c -9.19121,11.97886 -17.99544,22.95751 -19.26549,31.50144 -2.38654,16.05477 -2.38694,55.58007 -2.38694,55.58007 h -8.83313 c 0,0 3.52053,-41.2385 5.77285,-56.39036 1.46308,-9.84238 8.6854,-18.83643 16.35921,-28.85767 2.15227,-2.81064 4.36495,-5.67171 6.54172,-8.55451 M 76.359688,354.24199 c 1.58076,1.20893 3.11469,2.30093 4.56923,3.22616 10.16673,6.46701 26.187562,5.36918 26.187562,5.36918 0,0 16.02081,1.09783 26.18754,-5.36918 1.45454,-0.92523 2.98898,-2.01723 4.56975,-3.22616 M 27.276378,387.78412 c 2.17663,2.88295 4.38947,5.74424 6.54172,8.55503 7.67332,10.02125 15.31235,16.57547 16.35921,28.85767 4.80637,56.39036 4.80637,56.39036 4.80637,56.39036 h -7.86717 c 0,0 1.3e-4,-39.5253 -2.38642,-55.58007 -1.27009,-8.54421 -10.07451,-19.52316 -19.26549,-31.50247 m 8.3535,1.83451 c -2.15225,-2.81079 -4.36509,-5.67208 -6.54172,-8.55503 6.09702,-17.60673 21.72349,-30.68634 40.77012,-33.12976 3.36291,2.82773 6.74887,5.43807 9.92756,7.46001 12.19651,7.75815 28.080202,6.342 29.142422,6.23838 1.06222,0.10362 16.94641,1.51977 29.14292,-6.23838 3.17869,-2.02195 6.56464,-4.63227 9.92756,-7.46001 19.04682,2.44341 34.67319,15.52329 40.77012,33.13028 -2.17677,2.8828 -4.38945,5.74387 -6.54172,8.55451 -7.67381,10.02124 -14.89613,19.01529 -16.35921,28.85767 m -26.18238,-70.95483 c 9.4683,-7.24113 20.61131,-18.67898 26.3679,-23.62337 5.19317,-4.46048 11.3316,-9.03147 20.37498,-9.03149 9.04338,-2e-5 27.50014,8.19127 27.50014,27.50013 0,5.94561 -3.18515,13.63845 -5.78311,18.98644 -4.35883,8.97275 -11.0589,17.95284 -17.56482,26.43197 m -163.304262,-0.001 c -6.50525,-8.47879 -13.20413,-17.4586 -17.5627512,-26.43094 -2.59796,-5.34799 -5.7851801,-13.04083 -5.7851801,-18.98644 0,-19.30886 18.4567513,-27.50015 27.5001313,-27.50013 9.04338,2e-5 15.18181,4.57101 20.37499,9.03149 5.75658,4.94439 16.8996,16.38224 26.3679,23.62337"
       sodipodi:nodetypes="csccssccscsccssccsccccscsccsccssssccssssc" />
    <path
       id="path28-9"
       style="fill:none;stroke:#ff0000;stroke-width:0.1;stroke-miterlimit:9.8;paint-order:fill markers stroke;stroke-dasharray:none"
       d="m 272.59373,453.37689 c -9.19121,-11.97886 -17.99544,-22.95751 -19.26549,-31.50144 -2.38654,-16.05477 -2.38694,-55.58007 -2.38694,-55.58007 h -8.83313 c 0,0 3.52053,41.2385 5.77285,56.39036 1.46308,9.84238 8.6854,18.83643 16.35921,28.85767 2.15227,2.81064 4.36495,5.67171 6.54172,8.55451 m -110.59738,33.54265 c 1.58076,-1.20893 3.11469,-2.30093 4.56923,-3.22616 10.16673,-6.46701 26.18755,-5.36918 26.18755,-5.36918 0,0 16.02081,-1.09783 26.18754,5.36918 1.45454,0.92523 2.98898,2.01723 4.56975,3.22616 M 111.10126,460.09844 c 2.17663,-2.88295 4.38947,-5.74424 6.54172,-8.55503 7.67332,-10.02125 14.89617,-19.01553 16.35921,-28.85767 2.25233,-15.15187 4.80637,-56.39036 4.80637,-56.39036 h -7.86717 c 0,0 1.3e-4,39.5253 -2.38642,55.58007 -1.27009,8.54421 -10.07451,19.52316 -19.26549,31.50247 m 24.71271,-30.69218 c -1.46304,9.84214 -8.68589,18.83642 -16.35921,28.85767 -2.15225,2.81079 -4.36509,5.67208 -6.54172,8.55503 6.09702,17.60673 21.72349,30.68634 40.77012,33.12976 3.36291,-2.82773 6.74887,-5.43807 9.92756,-7.46001 12.19651,-7.75815 28.08019,-6.342 29.14241,-6.23838 1.06222,-0.10362 16.94641,-1.51977 29.14292,6.23838 3.17869,2.02195 6.56464,4.63227 9.92756,7.46001 19.04682,-2.44341 34.67319,-15.52329 40.77012,-33.13028 -2.17677,-2.8828 -4.38945,-5.74387 -6.54172,-8.55451 -7.67381,-10.02124 -14.89613,-19.01529 -16.35921,-28.85767 m -26.18238,70.95483 c 9.4683,7.24113 20.61131,18.67898 26.3679,23.62337 5.19317,4.46048 11.3316,9.03147 20.37498,9.03149 9.04338,2e-5 27.50014,-8.19127 27.50014,-27.50013 0,-5.94561 -3.18515,-13.63845 -5.78311,-18.98644 -4.35883,-8.97275 -11.0589,-17.95284 -17.56482,-26.43197 m -163.30425,10e-4 c -6.50525,8.47879 -13.204124,17.4586 -17.562744,26.43094 -2.59796,5.34799 -5.78518,13.04083 -5.78518,18.98644 0,19.30886 18.456744,27.50015 27.500124,27.50013 9.04338,-2e-5 15.18181,-4.57101 20.37499,-9.03149 5.75658,-4.94439 16.8996,-16.38224 26.3679,-23.62337"
       sodipodi:nodetypes="csccssccscsccssccsccsccscsccsccssssccssssc" />
    <path
       style="fill:none;stroke:#ff0000;stroke-width:0.1;stroke-miterlimit:13.9;paint-order:fill markers stroke;stroke-dasharray:none"
       d="m 387.51995,311.71427 c -6.47992,-16.04706 -12.95971,-32.0938 -12.24041,-46.39101 0.71929,-14.2972 8.63762,-26.84373 16.5561,-39.3905 0,0 -6.27114,-4.68017 -6.27114,-4.68017 -8.59659,14.10683 -17.19302,28.21338 -18.06048,43.8702 -0.86747,15.65682 5.99408,32.86264 12.85577,50.06882 z"
       id="path5-3"
       sodipodi:nodetypes="ccccccc"
       transform="rotate(17.145027,-466.65115,-583.70454)" />
    <path
       style="fill:none;stroke:#ff0000;stroke-width:0.1;stroke-miterlimit:13.9;paint-order:fill markers stroke;stroke-dasharray:none"
       d="m 387.51995,311.71427 c -6.47992,-16.04706 -12.95971,-32.0938 -12.24041,-46.39101 0.71929,-14.2972 8.63762,-26.84373 16.5561,-39.3905 0,0 -6.27114,-4.68017 -6.27114,-4.68017 -8.59659,14.10683 -17.19302,28.21338 -18.06048,43.8702 -0.86747,15.65682 5.99408,32.86264 12.85577,50.06882 z"
       id="path5-3-9"
       sodipodi:nodetypes="ccccccc"
       transform="rotate(17.145027,-1.105746,-49.6147)" />
    <path
       style="fill:none;stroke:#ff0000;stroke-width:0.1;stroke-miterlimit:13.9;paint-order:fill markers stroke;stroke-dasharray:none"
       d="m 387.51995,311.71427 c -6.47992,-16.04706 -12.95971,-32.0938 -12.24041,-46.39101 0.71929,-14.2972 8.63762,-26.84373 16.5561,-39.3905 0,0 -6.27114,-4.68017 -6.27114,-4.68017 -8.59659,14.10683 -17.19302,28.21338 -18.06048,43.8702 -0.86747,15.65682 5.99408,32.86264 12.85577,50.06882 z"
       id="path5-3-9-5"
       sodipodi:nodetypes="ccccccc"
       transform="rotate(17.145027,-5.5912703,-132.81885)" />
    <path
       style="fill:none;stroke:#ff0000;stroke-width:0.1;stroke-miterlimit:13.9;paint-order:fill markers stroke;stroke-dasharray:none"
       d="m 387.51995,311.71427 c -6.47992,-16.04706 -12.95971,-32.0938 -12.24041,-46.39101 0.71929,-14.2972 8.63762,-26.84373 16.5561,-39.3905 0,0 -6.27114,-4.68017 -6.27114,-4.68017 -8.59659,14.10683 -17.19302,28.21338 -18.06048,43.8702 -0.86747,15.65682 5.99408,32.86264 12.85577,50.06882 z"
       id="path5-3-8"
       sodipodi:nodetypes="ccccccc"
       transform="rotate(-167.55549,228.41986,392.32215)" />
    <path
       style="fill:none;stroke:#ff0000;stroke-width:0.1;stroke-miterlimit:13.9;paint-order:fill markers stroke;stroke-dasharray:none"
       d="m 387.51995,311.71427 c -6.47992,-16.04706 -12.95971,-32.0938 -12.24041,-46.39101 0.71929,-14.2972 8.63762,-26.84373 16.5561,-39.3905 0,0 -6.27114,-4.68017 -6.27114,-4.68017 -8.59659,14.10683 -17.19302,28.21338 -18.06048,43.8702 -0.86747,15.65682 5.99408,32.86264 12.85577,50.06882 z"
       id="path5-3-9-6"
       sodipodi:nodetypes="ccccccc"
       transform="rotate(-167.55549,217.36292,392.30234)" />
    <path
       style="fill:none;stroke:#ff0000;stroke-width:0.1;stroke-miterlimit:13.9;paint-order:fill markers stroke;stroke-dasharray:none"
       d="m 387.51995,311.71427 c -6.47992,-16.04706 -12.95971,-32.0938 -12.24041,-46.39101 0.71929,-14.2972 8.63762,-26.84373 16.5561,-39.3905 0,0 -6.27114,-4.68017 -6.27114,-4.68017 -8.59659,14.10683 -17.19302,28.21338 -18.06048,43.8702 -0.86747,15.65682 5.99408,32.86264 12.85577,50.06882 z"
       id="path5-3-9-5-5"
       sodipodi:nodetypes="ccccccc"
       transform="rotate(-167.55549,212.40998,390.97301)" />
    <path
       style="fill:none;stroke:#ff0000;stroke-width:0.1;stroke-miterlimit:13.9;paint-order:fill markers stroke;stroke-dasharray:none"
       d="m 387.51995,311.71427 c -6.47992,-16.04706 -12.95971,-32.0938 -12.24041,-46.39101 0.71929,-14.2972 8.63762,-26.84373 16.5561,-39.3905 0,0 -6.27114,-4.68017 -6.27114,-4.68017 -8.59659,14.10683 -17.19302,28.21338 -18.06048,43.8702 -0.86747,15.65682 5.99408,32.86264 12.85577,50.06882 z"
       id="path5-3-89"
       sodipodi:nodetypes="ccccccc"
       transform="rotate(13.518547,-421.61371,-582.94418)" />
    <path
       style="fill:none;stroke:#ff0000;stroke-width:0.1;stroke-miterlimit:13.9;paint-order:fill markers stroke;stroke-dasharray:none"
       d="m 387.51995,311.71427 c -6.47992,-16.04706 -12.95971,-32.0938 -12.24041,-46.39101 0.71929,-14.2972 8.63762,-26.84373 16.5561,-39.3905 0,0 -6.27114,-4.68017 -6.27114,-4.68017 -8.59659,14.10683 -17.19302,28.21338 -18.06048,43.8702 -0.86747,15.65682 5.99408,32.86264 12.85577,50.06882 z"
       id="path5-3-9-3"
       sodipodi:nodetypes="ccccccc"
       transform="rotate(-165.6942,301.06997,327.79812)" />
    <path
       style="fill:none;stroke:#ff0000;stroke-width:0.1;stroke-miterlimit:13.9;paint-order:fill markers stroke;stroke-dasharray:none"
       d="m 387.51995,311.71427 c -6.47992,-16.04706 -12.95971,-32.0938 -12.24041,-46.39101 0.71929,-14.2972 8.63762,-26.84373 16.5561,-39.3905 0,0 -6.27114,-4.68017 -6.27114,-4.68017 -8.59659,14.10683 -17.19302,28.21338 -18.06048,43.8702 -0.86747,15.65682 5.99408,32.86264 12.85577,50.06882 z"
       id="path5-3-9-5-4"
       sodipodi:nodetypes="ccccccc"
       transform="rotate(13.518547,-412.20576,-629.33054)" />
    <path
       style="fill:none;stroke:#ff0000;stroke-width:0.1;stroke-miterlimit:13.9;paint-order:fill markers stroke;stroke-dasharray:none"
       d="m 387.51995,311.71427 c -6.47992,-16.04706 -12.95971,-32.0938 -12.24041,-46.39101 0.71929,-14.2972 8.63762,-26.84373 16.5561,-39.3905 0,0 -6.27114,-4.68017 -6.27114,-4.68017 -8.59659,14.10683 -17.19302,28.21338 -18.06048,43.8702 -0.86747,15.65682 5.99408,32.86264 12.85577,50.06882 z"
       id="path5-3-9-8"
       sodipodi:nodetypes="ccccccc"
       transform="rotate(-2.2840991,3458.4138,2881.1859)" />
    <path
       style="fill:none;stroke:#ff0000;stroke-width:0.1;stroke-miterlimit:13.9;paint-order:fill markers stroke;stroke-dasharray:none"
       d="m 387.51995,311.71427 c -6.47992,-16.04706 -12.95971,-32.0938 -12.24041,-46.39101 0.71929,-14.2972 8.63762,-26.84373 16.5561,-39.3905 0,0 -6.27114,-4.68017 -6.27114,-4.68017 -8.59659,14.10683 -17.19302,28.21338 -18.06048,43.8702 -0.86747,15.65682 5.99408,32.86264 12.85577,50.06882 z"
       id="path5-3-9-8-5"
       sodipodi:nodetypes="ccccccc"
       transform="rotate(-92.806403,275.41854,433.14817)" />
    <path
       style="fill:none;stroke:#ff0000;stroke-width:0.1;stroke-miterlimit:13.9;paint-order:fill markers stroke;stroke-dasharray:none"
       d="m 387.51995,311.71427 c -6.47992,-16.04706 -12.95971,-32.0938 -12.24041,-46.39101 0.71929,-14.2972 8.63762,-26.84373 16.5561,-39.3905 0,0 -6.27114,-4.68017 -6.27114,-4.68017 -8.59659,14.10683 -17.19302,28.21338 -18.06048,43.8702 -0.86747,15.65682 5.99408,32.86264 12.85577,50.06882 z"
       id="path5-3-9-8-5-6"
       sodipodi:nodetypes="ccccccc"
       transform="rotate(88.763013,164.39315,292.27763)" />
    <circle
       style="fill:none;stroke:#ff0000;stroke-width:0.1;stroke-linecap:round;stroke-opacity:1;paint-order:fill markers stroke;stroke-dasharray:none"
       id="path13-1"
       cx="54.202351"
       cy="41.187546"
       r="30" />
    <circle
       style="fill:none;stroke:#ff0000;stroke-width:0.1;stroke-linecap:round;stroke-opacity:1;paint-order:fill markers stroke;stroke-dasharray:none"
       id="path13-8-6-1-4"
       cx="54.202351"
       cy="41.187546"
       r="28.25" />
    <path
       id="path36"
       style="fill:none;stroke:#ff0000;stroke-width:0.1;stroke-miterlimit:13.9;paint-order:fill markers stroke;stroke-dasharray:none"
       d="m 210.29286,-95.349673 v -2.99982 h 8.99997 v -79.999767 h -8.99997 v -3.00033 h -20.00032 v 3.00033 h -5.99964 v 9.99939 h -3.00033 v 20.00033 h 2.99981 v 9.99991 9.99991 h -2.99981 v 20.00033 h 2.99981 v 9.999897 h 6.00016 v 2.99982 z M 64.293233,-98.349036 v 8.999968 h 2.999817 v 20.000329 h -2.999817 v 8.999968 h 19.999813 v 2.999817 h 19.999814 v -2.999817 H 144.293 v 2.999817 h 19.99981 v -2.999817 h 20.00033 v -8.999968 h -2.99981 v -20.000329 h 2.99981 v -8.999968 h -30.00023 v 2.999817 h -14.9996 v -2.999817 h -30.00024 v 2.999817 H 94.292952 v -2.999817 z M 38.292512,-181.34908 v 2.99982 h -8.999968 v 79.999762 h 8.999968 v 3.000334 h 20.000329 v -3.000334 h 5.999634 v -9.999392 h 3.000334 v -20.00032 h -2.999817 v -9.99991 -9.99991 h 2.999817 v -20.00033 h -2.999817 v -9.9999 h -6.000151 v -2.99982 z m 56.000196,0 v 2.99982 H 64.292992 v 9.9999 h 2.999817 v 20.00033 h -2.999817 v 19.99982 h 2.999817 v 20.00032 h -2.999817 v 9.999909 h 29.999716 v 2.999817 h 15.000122 v -2.999817 h 30.00024 v 2.999817 h 15.00012 v -2.999817 h 29.99971 v -5.17e-4 h -5.1e-4 v -9.999902 h -2.99982 v -20.00033 h 2.99982 v -9.99991 -9.9999 h -2.99982 v -20.00033 h 3.00033 v -9.99939 h -29.99971 v -2.99982 h -15.00012 v 2.99982 h -30.00024 v -2.99982 z m -9.999662,-38.00032 v 2.99982 H 64.293233 v 8.99996 h 2.999817 v 20.00033 h -2.999817 v 8.99997 h 30.000236 v -2.99982 h 14.999601 v 2.99982 h 30.00024 v -2.99982 h 15.00011 v 2.99982 h 29.99972 v -8.99997 h -2.99981 v -20.00033 h 2.99981 v -8.99996 h -20.00033 v -2.99982 H 144.293 v 2.99982 h -40.00014 v -2.99982 z" />
    <path
       id="path21-3-9-7"
       style="fill:none;stroke:#ff0000;stroke-width:0.1;stroke-linecap:round;paint-order:fill markers stroke;stroke-dasharray:none"
       d="m 170.30879,206.10701 c 0.3364,-6.01065 0.78568,-11.53875 1.38648,-15.57993 2.169,-14.59169 26.31206,-36.28447 36.82876,-57.93342 2.59796,-5.34799 5.78517,-13.04084 5.78517,-18.98643 0,-19.308813 -18.45719,-27.500123 -27.50064,-27.500103 -9.04331,2e-5 -15.18189,4.57101 -20.37499,9.03149 -6.7177,5.769843 -20.77033,20.382493 -30.93713,26.849493 -10.1667,6.46701 -26.18754,5.36918 -26.18754,5.36918 0,0 -16.020746,1.09783 -26.187546,-5.36918 -10.166701,-6.467 -24.219951,-21.07965 -30.937651,-26.849493 -5.1932,-4.46048 -11.33158,-9.03147 -20.37498,-9.03149 -9.0434,-2e-5 -27.5001299,8.19129 -27.5001299,27.500103 0,5.94559 3.18511,13.63844 5.7831099,18.98643 10.5167,21.64895 34.66121,43.34173 36.83031,57.93342 0.6007,4.04118 1.05007,9.56928 1.38647,15.57993 h 1.00046 20.00033 v -2.99982 h 19.999811 v 2.99982 h 40.000136 v -2.99982 h 19.99982 v 2.99982 h 19.99981 z" />
  </g>
</svg>
